<?xml version="1.0" encoding="UTF-8" standalone="no"?>
<svg
   xmlns:dc="http://purl.org/dc/elements/1.1/"
   xmlns:cc="http://creativecommons.org/ns#"
   xmlns:rdf="http://www.w3.org/1999/02/22-rdf-syntax-ns#"
   xmlns:svg="http://www.w3.org/2000/svg"
   xmlns="http://www.w3.org/2000/svg"
   id="svg2"
   version="1.1"
   xml:space="preserve"
   style="enable-background:new 0 0 47.5 47.5;"
   viewBox="0 0 47.5 47.5"><metadata
     id="metadata8"><rdf:RDF><cc:Work
         rdf:about=""><dc:format>image/svg+xml</dc:format><dc:type
           rdf:resource="http://purl.org/dc/dcmitype/StillImage" /><dc:title></dc:title></cc:Work></rdf:RDF></metadata><defs
     id="defs6"><clipPath
       clipPathUnits="userSpaceOnUse"
       id="clipPath16"><path
         d="M 0,38 38,38 38,0 0,0 0,38 Z"
         id="path18" /></clipPath></defs><g
     id="g10"
     transform="matrix(1.25,0,0,-1.25,0,47.5)"><g
       id="g12"><g
         id="g14"
         clip-path="url(#clipPath16)"><g
           id="g20"
           transform="translate(34.541,13.8018)"><path
             d="m 0,0 c 0.364,1.578 0.243,3.266 -0.458,4.946 -0.678,1.625 -1.847,2.91 -3.271,3.773 0.319,1.193 0.235,2.475 -0.324,3.751 -0.841,1.92 -2.66,3.201 -4.712,3.562 0.249,0.572 0.329,1.288 0.036,2.167 -1,3 -5,1 -8,4.999 -2.439,-1.464 -2.969,-3.639 -2.877,-5.487 -2.422,-0.412 -3.8,-0.936 -3.8,-0.936 l 0,-0.002 c -1.361,-0.551 -2.323,-1.884 -2.323,-3.443 0,-0.879 0.318,-1.676 0.829,-2.312 l -0.692,-0.259 10e-4,-0.003 c -2.33,-0.87 -3.975,-2.976 -3.975,-5.439 0,-1.046 0.3,-2.027 0.82,-2.878 -2.824,-1.268 -4.795,-4.022 -4.795,-7.241 0,-4.418 3.691,-8 8.244,-8 3.269,0 6.559,0.703 9.531,1.665 2.243,-1.04 5.695,-1.665 10.892,-1.665 4.05,0 7.333,3.283 7.333,7.333 C 2.459,-3.293 1.506,-1.344 0,0"
             style="fill:#915949;fill-opacity:1;fill-rule:nonzero;stroke:none"
             id="path22" /></g><path
           id="path12897"
           d="m 15.15,31.15 c 3.2,-3.9 10.25,-1.6 10.25,-1.6 -0.293611,-0.308291 -8.332715,-5.504351 -10.25,1.6 z"
           style="fill:#54332a;fill-opacity:1;fill-rule:evenodd;stroke:none;stroke-width:0.80000001px;stroke-linecap:butt;stroke-linejoin:miter;stroke-opacity:1" /><path
           id="path12899"
           d="m 10.3,24.5 c 6.668144,-5.484704 19.555716,-2.202587 19.6,-2.15 -0.066,-0.115865 -16.073708,-6.976373 -19.6,2.15 z"
           style="color:#000000;clip-rule:nonzero;display:inline;overflow:visible;visibility:visible;opacity:1;isolation:auto;mix-blend-mode:normal;color-interpolation:sRGB;color-interpolation-filters:linearRGB;solid-color:#000000;solid-opacity:1;fill:#54332a;fill-opacity:1;fill-rule:evenodd;stroke:none;stroke-width:0.80000001px;stroke-linecap:butt;stroke-linejoin:miter;stroke-miterlimit:4;stroke-dasharray:none;stroke-dashoffset:0;stroke-opacity:1;color-rendering:auto;image-rendering:auto;shape-rendering:auto;text-rendering:auto;enable-background:accumulate" /><path
           id="path12915"
           d="m 6.45,15.85 c 17.281222,-9.743892 27.599845,-2.250774 27.6,-2.25 0,0 -14.066474,-10.712628 -27.6,2.25 z"
           style="color:#000000;clip-rule:nonzero;display:inline;overflow:visible;visibility:visible;opacity:1;isolation:auto;mix-blend-mode:normal;color-interpolation:sRGB;color-interpolation-filters:linearRGB;solid-color:#000000;solid-opacity:1;fill:#54332a;fill-opacity:1;fill-rule:evenodd;stroke:none;stroke-width:0.80000001px;stroke-linecap:butt;stroke-linejoin:miter;stroke-miterlimit:4;stroke-dasharray:none;stroke-dashoffset:0;stroke-opacity:1;color-rendering:auto;image-rendering:auto;shape-rendering:auto;text-rendering:auto;enable-background:accumulate" /><path
           id="path12922"
           d="m 18.75,2.6437186 c 3.492521,0.9883027 5.152144,3.2593592 5.45017,4.4364931 C 24.428967,6.4823528 25.097436,2.331625 18.75,2.6437186 Z"
           style="color:#000000;clip-rule:nonzero;display:inline;overflow:visible;visibility:visible;opacity:1;isolation:auto;mix-blend-mode:normal;color-interpolation:sRGB;color-interpolation-filters:linearRGB;solid-color:#000000;solid-opacity:1;fill:#54332a;fill-opacity:1;fill-rule:evenodd;stroke:none;stroke-width:0.80000001px;stroke-linecap:butt;stroke-linejoin:miter;stroke-miterlimit:4;stroke-dasharray:none;stroke-dashoffset:0;stroke-opacity:1;color-rendering:auto;image-rendering:auto;shape-rendering:auto;text-rendering:auto;enable-background:accumulate" /></g></g></g></svg>