<?xml version="1.0" encoding="UTF-8" standalone="no"?>
<svg
   xmlns:dc="http://purl.org/dc/elements/1.1/"
   xmlns:cc="http://creativecommons.org/ns#"
   xmlns:rdf="http://www.w3.org/1999/02/22-rdf-syntax-ns#"
   xmlns:svg="http://www.w3.org/2000/svg"
   xmlns="http://www.w3.org/2000/svg"
   viewBox="0 0 48 48"
   version="1.1"
   id="svg3352"
   height="48"
   width="48">
  <defs
     id="defs3354" />
  <metadata
     id="metadata3357">
    <rdf:RDF>
      <cc:Work
         rdf:about="">
        <dc:format>image/svg+xml</dc:format>
        <dc:type
           rdf:resource="http://purl.org/dc/dcmitype/StillImage" />
        <dc:title></dc:title>
      </cc:Work>
    </rdf:RDF>
  </metadata>
  <g
     style="display:inline"
     id="layer2">
    <rect
       y="11.835022"
       x="1.2599617"
       height="17.609079"
       width="5.7420907"
       id="rect4571"
       style="opacity:1;fill:#f9f9f9;stroke:#000000;stroke-width:1.44365215;stroke-linecap:butt;stroke-linejoin:round;stroke-miterlimit:4;stroke-dasharray:none;stroke-dashoffset:0" />
    <rect
       y="11.813795"
       x="41.390568"
       height="17.609079"
       width="5.7420907"
       id="rect4571-5"
       style="opacity:1;fill:#f9f9f9;stroke:#000000;stroke-width:1.44365215;stroke-linecap:butt;stroke-linejoin:round;stroke-miterlimit:4;stroke-dasharray:none;stroke-dashoffset:0" />
    <path
       id="path8652"
       d="m 42.117987,20.593547 0,-8.031192 2.127468,0 2.127468,0 0,8.031192 0,8.031192 -2.127468,0 -2.127468,0 0,-8.031192 z"
       style="opacity:1;fill:#666666;fill-opacity:1;stroke:none;stroke-width:1;stroke-linecap:butt;stroke-linejoin:round;stroke-miterlimit:4;stroke-dasharray:none;stroke-dashoffset:0" />
    <path
       id="path8654"
       d="m 2.0152128,20.593547 0,-8.031192 2.1274681,0 2.1274684,0 0,8.031192 0,8.031192 -2.1274684,0 -2.1274681,0 0,-8.031192 z"
       style="opacity:1;fill:#666666;fill-opacity:1;stroke:none;stroke-width:1;stroke-linecap:butt;stroke-linejoin:round;stroke-miterlimit:4;stroke-dasharray:none;stroke-dashoffset:0" />
  </g>
  <g
     style="display:inline"
     id="layer1">
    <rect
       y="2.2436426"
       x="4.0669761"
       height="43.767494"
       width="40.194637"
       id="rect4551"
       style="opacity:1;fill:#f9f9f9;stroke:#000000;stroke-width:1.44365215;stroke-linecap:butt;stroke-linejoin:round;stroke-miterlimit:4;stroke-dasharray:none;stroke-dashoffset:0" />
    <path
       id="path8660"
       d="m 4.8872946,24.103869 0,-21.1151202 4.6440627,0 4.6440617,0 -0.06971,1.9945014 c -0.03834,1.0969757 -0.06984,2.3373376 -0.07001,2.756358 l -3e-4,0.7618577 -0.452087,0.075324 C 12.764395,8.7132393 11.417547,9.2659946 10.606278,9.7985844 8.9665788,10.875029 7.7018713,12.56469 7.1044334,14.477072 c -0.3231616,1.034434 -0.3520946,3.169312 -0.057667,4.254936 0.4314467,1.590834 1.4840623,3.213459 2.7629596,4.259149 0.788007,0.644313 2.541066,1.522217 3.413837,1.709596 l 0.624207,0.134014 -0.06514,2.985311 c -0.03582,1.641922 -0.08972,5.067571 -0.11977,7.612554 -0.03004,2.544984 -0.08357,5.788043 -0.11894,7.206799 l -0.06432,2.579554 -4.2961645,0 -4.2961651,0 0,-21.11512 z"
       style="opacity:1;fill:#999999;fill-opacity:1;stroke:none;stroke-width:1;stroke-linecap:butt;stroke-linejoin:round;stroke-miterlimit:4;stroke-dasharray:none;stroke-dashoffset:0" />
    <path
       id="path8662"
       d="m 34.195495,42.533062 c 0.05384,-2.46978 0.263607,-16.343828 0.263607,-17.4343 l 0,-0.472908 0.749212,-0.128475 C 37.79222,24.054288 40.142573,22.29508 41.265641,19.963546 41.8865,18.674616 42.118609,17.694123 42.11614,16.370798 42.11084,13.542187 40.785795,11.120165 38.362034,9.5088529 37.493222,8.9312671 36.051093,8.3525881 35.214499,8.2458504 l -0.574267,-0.073267 0.069,-1.4386283 c 0.03794,-0.7912454 0.069,-1.9576079 0.069,-2.5919167 l 0,-1.1532884 4.361308,0 4.36131,0 0,21.11512 0,21.115121 -4.681943,0 -4.681944,0 0.05853,-2.685928 z"
       style="opacity:1;fill:#999999;fill-opacity:1;stroke:none;stroke-width:1;stroke-linecap:butt;stroke-linejoin:round;stroke-miterlimit:4;stroke-dasharray:none;stroke-dashoffset:0" />
  </g>
  <g
     style="display:inline"
     id="layer3">
    <path
       id="path4388-6"
       d="M 34.577412,2.8254381 33.959347,45.830132"
       style="fill:none;fill-rule:evenodd;stroke:#000000;stroke-width:0.29614881;stroke-linecap:butt;stroke-linejoin:miter;stroke-miterlimit:4;stroke-dasharray:none;stroke-opacity:1" />
    <ellipse
       ry="7.5276151"
       rx="7.8369679"
       cy="16.372868"
       cx="33.546555"
       id="path3414-7"
       style="fill:#ffffff;stroke:#000000;stroke-width:1.44365215" />
    <ellipse
       ry="4.6894274"
       rx="5.3593454"
       cy="16.372868"
       cx="33.546555"
       id="path4239-3"
       style="fill:#ffffff;stroke:#000000;stroke-width:0.40195093;stroke-miterlimit:4;stroke-dasharray:none" />
    <path
       id="path4388-6-4"
       d="M 14.328966,2.6888427 13.710903,45.693538"
       style="fill:none;fill-rule:evenodd;stroke:#000000;stroke-width:0.29614881;stroke-linecap:butt;stroke-linejoin:miter;stroke-miterlimit:4;stroke-dasharray:none;stroke-opacity:1" />
    <ellipse
       ry="7.5276151"
       rx="7.8369679"
       cy="16.68222"
       cx="15.397778"
       id="path3414"
       style="fill:#ffffff;stroke:#000000;stroke-width:1.44365215" />
    <ellipse
       ry="4.6894274"
       rx="5.3593454"
       cy="16.442438"
       cx="15.379419"
       id="path4239"
       style="fill:#ffffff;stroke:#000000;stroke-width:0.40195093;stroke-miterlimit:4;stroke-dasharray:none" />
    <path
       id="path8658"
       d="m 13.965567,41.309768 c 0.0381,-2.150073 0.09486,-6.326559 0.126117,-9.281081 0.03125,-2.95452 0.08257,-5.754799 0.11403,-6.222843 l 0.05719,-0.850987 1.242513,-0.01499 c 2.561274,-0.03091 4.544694,-0.907085 6.316166,-2.790172 0.920933,-0.978956 1.660944,-2.328862 1.961024,-3.577239 0.268701,-1.11783 0.24495,-2.86735 -0.05344,-3.935817 C 23.083636,12.325066 21.592625,10.486903 19.465482,9.3802437 18.273623,8.76017 17.291842,8.5116703 15.763966,8.4433421 l -1.303074,-0.058273 0.0011,-2.2992607 c 6.44e-4,-1.2645932 0.03084,-2.4787655 0.06711,-2.6981606 l 0.06594,-0.3989002 9.878808,0 9.878807,0 0,2.5529616 0,2.5529622 -0.841628,0 c -3.987377,0 -7.456153,2.6832956 -8.359089,6.4662366 -0.281178,1.178021 -0.188028,3.190375 0.200461,4.330663 0.379892,1.115048 0.988666,2.129627 1.795109,2.991718 1.570563,1.678936 3.54907,2.599585 5.95526,2.771131 l 0.930767,0.06636 0.0024,0.755277 c 0.0014,0.415404 -0.05581,5.0275 -0.126921,10.249105 l -0.129305,9.493826 -9.941743,0 -9.941741,0 0.06929,-3.909223 3e-6,0 z"
       style="opacity:1;fill:#666666;fill-opacity:1;stroke:none;stroke-width:1;stroke-linecap:butt;stroke-linejoin:round;stroke-miterlimit:4;stroke-dasharray:none;stroke-dashoffset:0;marker-end:" />
    <path
       id="path8672"
       d="M 13.749612,20.629398 C 12.796091,20.32426 12.080803,19.875703 11.418184,19.167361 10.609544,18.302922 10.318381,17.580526 10.3068,16.409923 10.299,15.62529 10.33194,15.485405 10.698914,14.74288 c 0.880495,-1.781562 2.873708,-2.854782 5.024453,-2.705355 1.979415,0.137522 3.55035,1.119791 4.331825,2.708586 0.31981,0.650198 0.348605,0.792346 0.348605,1.720902 0,0.873051 -0.03838,1.09257 -0.279271,1.597214 -0.563492,1.180478 -1.709815,2.141075 -3.048429,2.554532 -0.892725,0.275735 -2.482211,0.28082 -3.326485,0.01059 z"
       style="opacity:1;fill:#e4230c;fill-opacity:1;stroke:none;stroke-width:1;stroke-linecap:butt;stroke-linejoin:round;stroke-miterlimit:4;stroke-dasharray:none;stroke-dashoffset:0" />
    <path
       id="path8674"
       d="m 32.308145,20.672092 c -2.930204,-0.637558 -4.609933,-3.459582 -3.500991,-5.88183 0.810678,-1.770753 2.562231,-2.810779 4.733759,-2.810779 4.271973,0 6.630069,4.202017 3.993254,7.115791 -1.250973,1.38237 -3.290899,1.997864 -5.226022,1.576818 z"
       style="opacity:1;fill:#e4230c;fill-opacity:1;stroke:none;stroke-width:1;stroke-linecap:butt;stroke-linejoin:round;stroke-miterlimit:4;stroke-dasharray:none;stroke-dashoffset:0" />
    <path
       id="path8680"
       d="m 32.534166,23.0573 c -1.601205,-0.247179 -2.886051,-0.900341 -4.057814,-2.062817 -0.696343,-0.690823 -0.945905,-1.030424 -1.29349,-1.760148 -0.513289,-1.077605 -0.662593,-1.732908 -0.662593,-2.908156 0,-1.795802 0.631547,-3.274499 1.960844,-4.591087 1.44524,-1.431426 3.013499,-2.0743636 5.0598,-2.0743636 2.047565,0 3.624848,0.6462536 5.058767,2.0727126 1.38087,1.373683 1.961879,2.7445 1.961879,4.628812 0,1.880247 -0.579662,3.248429 -1.962923,4.63311 -1.331163,1.332532 -2.752872,1.972058 -4.685416,2.107636 -0.409538,0.02872 -1.030111,0.0081 -1.379054,-0.0457 z m 2.470719,-1.923608 c 1.40138,-0.26698 3.061866,-1.517552 3.662333,-2.758237 0.421564,-0.871034 0.578065,-1.857107 0.425203,-2.679085 -0.370147,-1.990365 -1.897993,-3.521619 -4.068635,-4.077713 -0.955106,-0.244686 -2.679219,-0.162724 -3.557154,0.169103 -2.394852,0.905167 -3.814156,3.046962 -3.46321,5.226144 0.481767,2.991499 3.524874,4.782118 7.001463,4.119788 z"
       style="opacity:1;fill:#ececec;fill-opacity:1;stroke:none;stroke-width:1;stroke-linecap:butt;stroke-linejoin:round;stroke-miterlimit:4;stroke-dasharray:none;stroke-dashoffset:0" />
    <path
       id="path8682"
       d="M 14.58508,23.362269 C 12.953278,23.213355 11.518863,22.524285 10.2986,21.303116 9.4215843,20.425446 8.8486971,19.418414 8.5401837,18.212142 7.9824427,16.031398 8.6444927,13.714976 10.2986,12.059633 c 1.595433,-1.59662 3.560068,-2.2789931 5.922908,-2.057194 2.736423,0.256867 5.140276,2.197811 5.966335,4.8174 0.179975,0.57073 0.234807,1.005439 0.234807,1.861535 0,1.838226 -0.61174,3.313239 -1.922517,4.635526 -1.535696,1.549185 -3.585435,2.257964 -5.915053,2.045369 z m 2.780752,-2.312956 c 2.980053,-1.023479 4.370125,-3.901011 3.16068,-6.542786 -0.504329,-1.101603 -1.819293,-2.231835 -3.094071,-2.659406 -2.834446,-0.950693 -5.996556,0.219398 -7.200768,2.664539 -0.3417757,0.693973 -0.3588431,0.784398 -0.3588431,1.901257 0,1.095868 0.022031,1.219144 0.3366211,1.883163 0.718203,1.515968 2.262113,2.651296 4.077876,2.998699 0.655208,0.125359 2.405028,-0.01417 3.078505,-0.245466 z"
       style="opacity:1;fill:#cccccc;fill-opacity:1;stroke:none;stroke-width:1;stroke-linecap:butt;stroke-linejoin:round;stroke-miterlimit:4;stroke-dasharray:none;stroke-dashoffset:0" />
    <path
       id="path8684"
       d="m 14.648409,23.349133 c -0.0853,-0.04782 -0.26126,-0.0766 -0.391045,-0.06396 -0.129784,0.01264 -0.319561,-0.01311 -0.421726,-0.05724 -0.102158,-0.04414 -0.305571,-0.08714 -0.452012,-0.09559 -0.146442,-0.0085 -0.26629,-0.04369 -0.266331,-0.07831 -4.2e-5,-0.03461 -0.189488,-0.119697 -0.420991,-0.189052 -0.650236,-0.194816 -1.913908,-1.095805 -2.659561,-1.896252 -0.3708595,-0.398109 -0.6600794,-0.723835 -0.6427123,-0.723835 0.045514,0 -0.4413075,-0.947092 -0.5194432,-1.010548 -0.036023,-0.02926 -0.074301,-0.124989 -0.085076,-0.212746 -0.010828,-0.08776 -0.095601,-0.422835 -0.1885288,-0.744615 -0.2315525,-0.801878 -0.2324159,-2.327066 -0.00178,-3.191201 0.1014899,-0.380286 0.1862454,-0.751263 0.1883556,-0.824394 0.00219,-0.07313 0.037923,-0.132966 0.079573,-0.132966 0.070249,0 0.3432926,-0.56312 0.3307348,-0.682108 -0.00658,-0.06281 0.3879887,-0.5395 1.0403579,-1.256737 0.559586,-0.615226 1.866069,-1.514413 2.458105,-1.691792 0.231503,-0.06936 0.420949,-0.154432 0.42099,-0.189052 4.2e-5,-0.03461 0.11989,-0.06985 0.266331,-0.07831 0.146441,-0.0085 0.349847,-0.04975 0.452012,-0.09178 0.420055,-0.172784 1.970741,-0.2006154 2.821055,-0.05063 0.851902,0.150263 1.939267,0.574583 2.611173,1.018952 0.531542,0.351537 1.893782,1.532221 1.767835,1.532221 -0.07287,0 0.510007,0.785293 0.618647,0.833479 0.04424,0.01962 0.05339,0.07945 0.02032,0.132966 -0.03307,0.05351 -0.0066,0.09729 0.0588,0.09729 0.06541,0 0.08935,0.04786 0.05318,0.106376 -0.03615,0.0585 -0.0071,0.106375 0.06464,0.106375 0.07171,0 0.100154,0.03023 0.0632,0.06718 -0.03694,0.03694 -0.01071,0.168581 0.05828,0.292526 0.069,0.123944 0.133135,0.261254 0.14252,0.305134 0.0094,0.04387 0.02672,0.09175 0.0385,0.106375 0.166934,0.207102 0.250248,3.354827 0.09402,3.552312 -0.05298,0.06697 -0.08898,0.16271 -0.07999,0.212747 0.009,0.05004 0.0047,0.126878 -0.0095,0.170757 -0.01424,0.04387 -0.03358,0.115679 -0.04297,0.159561 -0.0094,0.04387 -0.07352,0.181189 -0.14252,0.305133 -0.069,0.123945 -0.09524,0.255582 -0.05828,0.292527 0.03694,0.03694 0.0086,0.06718 -0.06321,0.06718 -0.07171,0 -0.100791,0.04786 -0.06464,0.106376 0.03617,0.0585 0.01223,0.106375 -0.05318,0.106375 -0.0654,0 -0.09187,0.04378 -0.05881,0.09729 0.03307,0.05351 0.02392,0.113342 -0.02032,0.132966 -0.107013,0.04747 -0.692086,0.833479 -0.620407,0.833479 0.130471,0 -1.313565,1.254043 -1.803015,1.565791 -0.668306,0.425669 -1.751179,0.838196 -2.44567,0.931695 -0.291512,0.03925 -0.601824,0.09614 -0.689582,0.126453 -0.268594,0.09275 -1.282726,0.0939 -1.447266,0.0017 l 0,3e-6 z m 2.67056,-2.296627 c 0.409537,-0.122321 0.874312,-0.318175 1.032833,-0.435232 0.158521,-0.117062 0.316112,-0.212831 0.350204,-0.212831 0.165864,0 1.314637,-1.153391 1.589212,-1.595601 1.00189,-1.613577 0.817787,-3.904191 -0.426848,-5.310768 -0.543531,-0.614252 -2.173094,-1.769087 -2.173094,-1.540024 0,0.03792 -0.06131,0.01805 -0.136271,-0.04416 -0.07495,-0.06221 -0.278388,-0.14241 -0.452087,-0.178239 -0.173698,-0.03583 -0.459419,-0.09494 -0.634936,-0.131363 -0.421936,-0.08755 -1.712394,-0.08476 -2.180655,0.0047 -1.732914,0.331116 -3.079026,1.272669 -3.963954,2.772628 l -0.4467936,0.757321 0.00104,1.116922 c 0.00125,1.299019 0.011548,1.353966 0.4082336,2.164699 0.557684,1.139862 1.956207,2.279269 3.363229,2.740091 0.794881,0.260337 2.615802,0.206666 3.669882,-0.108169 z"
       style="opacity:1;fill:#cccccc;fill-opacity:1;stroke:none;stroke-width:1;stroke-linecap:butt;stroke-linejoin:round;stroke-miterlimit:4;stroke-dasharray:none;stroke-dashoffset:0" />
    <path
       id="path8686"
       d="m 14.580416,23.352796 c -0.123323,-0.04582 -0.299552,-0.0741 -0.391623,-0.06287 -0.09206,0.01119 -0.289886,-0.01402 -0.439591,-0.0561 -0.149703,-0.04209 -0.341332,-0.08667 -0.42584,-0.09907 -0.08451,-0.01241 -0.579044,-0.23328 -1.098968,-0.490838 C 11.469062,22.269743 11.09395,21.992303 10.357941,21.263448 9.737247,20.648792 9.3545279,20.169121 9.1845471,19.792811 9.0458057,19.485658 8.9005823,19.23435 8.8618292,19.23435 c -0.038748,0 -0.072181,-0.05984 -0.07429,-0.132967 -0.00219,-0.07313 -0.086653,-0.444108 -0.1878795,-0.824394 C 8.4984309,17.896705 8.4134917,17.19615 8.410898,16.7202 c -0.00501,-0.921042 0.293644,-2.443694 0.5254794,-2.678991 0.076086,-0.07722 0.169511,-0.264606 0.2076104,-0.416408 0.0381,-0.151801 0.1698096,-0.397258 0.2926875,-0.545462 0.352839,-0.425558 1.5060337,-1.662543 1.5586537,-1.671905 0.02619,-0.0047 0.261812,-0.143689 0.523609,-0.308954 0.399472,-0.252175 1.476926,-0.777996 1.650002,-0.805235 0.0279,-0.0043 0.20718,-0.0551 0.398404,-0.112682 1.673465,-0.5039355 4.07245,-0.123571 5.648545,0.89559 0.641464,0.414793 1.879341,1.494238 1.879341,1.638808 0,0.03504 0.131473,0.235773 0.292156,0.446064 0.160688,0.210292 0.280358,0.41825 0.265934,0.462129 -0.01442,0.04387 0.02446,0.07978 0.08643,0.07978 0.06196,0 0.08306,0.04786 0.04691,0.106375 -0.03615,0.0585 -0.0071,0.106376 0.06464,0.106376 0.07171,0 0.0983,0.03209 0.05909,0.07129 -0.03921,0.03921 -0.001,0.178508 0.08484,0.309555 0.08587,0.131047 0.189791,0.374208 0.230943,0.540358 0.119963,0.484307 0.135573,3.266089 0.01914,3.408854 -0.05755,0.07057 -0.07904,0.169737 -0.04774,0.220374 0.03129,0.05064 -0.005,0.211495 -0.08078,0.357463 -0.07572,0.145968 -0.167873,0.385666 -0.204768,0.532661 -0.0369,0.146995 -0.235292,0.478881 -0.440888,0.737523 -0.205595,0.258644 -0.377848,0.518128 -0.382788,0.576634 -0.01457,0.172425 -1.497989,1.439407 -2.071274,1.76905 -1.209438,0.695438 -3.66332,1.20062 -4.43662,0.913369 z m 2.693039,-2.301892 c 1.343902,-0.418738 2.723404,-1.575073 3.245832,-2.720743 0.359889,-0.789224 0.49723,-1.718598 0.370374,-2.506298 -0.129923,-0.806747 -0.594918,-1.811676 -1.113895,-2.407303 -0.495464,-0.568643 -1.649613,-1.323617 -2.40361,-1.572299 -0.735359,-0.242534 -2.525407,-0.333781 -3.318413,-0.169154 -1.472752,0.305743 -2.942164,1.364636 -3.704113,2.669272 -0.3683054,0.630625 -0.4292304,0.831158 -0.4886907,1.608498 -0.1174233,1.535074 0.3126847,2.681465 1.4119037,3.76326 0.625451,0.615537 1.833333,1.300103 2.642177,1.49745 0.767709,0.187313 2.505284,0.10315 3.358435,-0.162683 z"
       style="opacity:1;fill:#cccccc;fill-opacity:1;stroke:none;stroke-width:1;stroke-linecap:butt;stroke-linejoin:round;stroke-miterlimit:4;stroke-dasharray:none;stroke-dashoffset:0" />
    <path
       id="path8688"
       d="m 14.761279,23.395898 c -0.02334,-0.02334 -0.223284,-0.06074 -0.44434,-0.08313 -0.221055,-0.0224 -0.562146,-0.06975 -0.757978,-0.105256 -0.438456,-0.07948 -1.755633,-0.709291 -2.223496,-1.063174 -0.190142,-0.14382 -0.345714,-0.237017 -0.345714,-0.207102 0,0.02991 -0.322099,-0.290759 -0.715776,-0.712608 -0.3936764,-0.421848 -0.7526863,-0.782953 -0.7977992,-0.802454 -0.045117,-0.01949 -0.082027,-0.08602 -0.082027,-0.147795 0,-0.06178 -0.1345743,-0.333038 -0.2990526,-0.602784 C 8.7106711,19.041141 8.3981941,17.697868 8.3995003,16.681376 8.4006503,15.8012 8.6990185,14.271707 8.9183065,14.02204 8.9953955,13.93428 9.08958,13.73772 9.1276241,13.585234 c 0.038038,-0.152486 0.2155333,-0.439695 0.3944196,-0.638241 0.8138683,-0.903313 1.4666133,-1.546492 1.7473593,-1.721755 0.397415,-0.248098 1.954188,-1.027917 1.954188,-0.978893 0,0.02077 0.155571,-0.0094 0.345713,-0.067 1.456377,-0.4413897 3.440087,-0.2211087 5.042197,0.559909 0.789224,0.38474 2.452302,1.686665 2.475362,1.937813 0.0046,0.05009 0.148932,0.268552 0.320742,0.48548 0.171811,0.216928 0.370011,0.534959 0.440443,0.706735 0.07043,0.171775 0.204629,0.479857 0.298214,0.684626 0.13355,0.292213 0.168965,0.727008 0.164619,2.021095 -0.003,0.906833 -0.03885,1.777333 -0.07956,1.934442 -0.139586,0.538628 -0.502625,1.285356 -0.819278,1.685163 -0.174249,0.220008 -0.316816,0.426315 -0.316816,0.458463 0,0.03215 -0.266898,0.312468 -0.593108,0.622932 -1.1626,1.106489 -2.168904,1.638651 -3.715015,1.964609 -0.71331,0.150381 -1.936933,0.244179 -2.025822,0.155289 z m 2.185323,-2.26085 c 1.356812,-0.298106 2.982754,-1.569506 3.546836,-2.773437 0.957042,-2.042625 0.253243,-4.424038 -1.701307,-5.756633 -1.036038,-0.706362 -1.774487,-0.943571 -3.12195,-1.002849 -1.850467,-0.0814 -3.184463,0.407635 -4.424731,1.622109 -0.8352,0.81783 -1.2779684,1.676437 -1.3749663,2.666305 -0.136342,1.391378 0.2322483,2.511656 1.1616843,3.530781 0.879347,0.964204 2.202237,1.689384 3.414719,1.871875 0.431554,0.06496 1.909995,-0.02858 2.499715,-0.158151 z"
       style="opacity:1;fill:#e6e6e6;fill-opacity:1;stroke:none;stroke-width:1;stroke-linecap:butt;stroke-linejoin:round;stroke-miterlimit:4;stroke-dasharray:none;stroke-dashoffset:0" />
    <path
       id="path8690"
       d="m 14.71282,23.421828 c -0.608074,-0.07313 -1.316092,-0.230956 -1.65272,-0.368413 -0.173353,-0.07079 -0.382198,-0.142097 -0.4641,-0.158471 -0.08189,-0.01636 -0.177636,-0.06885 -0.212745,-0.116616 -0.0351,-0.04777 -0.135639,-0.102409 -0.223396,-0.121425 -0.08776,-0.01901 -0.175616,-0.07915 -0.19524,-0.133629 -0.01963,-0.05448 -0.07946,-0.072 -0.132967,-0.03894 -0.0535,0.03307 -0.09729,0.0015 -0.09729,-0.07026 0,-0.07171 -0.0303,-0.10007 -0.06735,-0.06302 -0.110901,0.1109 -0.98305,-0.572255 -1.621811,-1.270379 -0.703165,-0.768516 -1.6065729,-2.442136 -1.4526686,-2.691159 0.033266,-0.05383 0.00992,-0.129116 -0.051966,-0.167334 -0.061834,-0.03823 -0.083458,-0.160768 -0.048051,-0.272331 0.035407,-0.111563 0.026918,-0.263108 -0.018868,-0.336763 -0.1145593,-0.184292 -0.119144,-1.785034 -0.00533,-1.855388 0.050641,-0.03129 0.064079,-0.168416 0.029873,-0.304711 -0.034206,-0.136295 -0.013375,-0.277984 0.046297,-0.314865 0.059683,-0.03689 0.082424,-0.109241 0.050567,-0.160789 -0.093878,-0.151907 0.4203173,-1.305124 0.8826965,-1.979652 0.6098121,-0.889608 2.0108911,-2.164349 2.1861851,-1.989053 0.03873,0.03873 0.07041,0.0118 0.07041,-0.05996 0,-0.07171 0.04787,-0.100791 0.106376,-0.06464 0.0585,0.03617 0.106375,0.01223 0.106375,-0.05318 0,-0.06541 0.04786,-0.08935 0.106375,-0.05318 0.0585,0.03617 0.106376,0.01223 0.106376,-0.05318 0,-0.06541 0.04787,-0.08935 0.106375,-0.0532 0.0585,0.03616 0.106375,0.01223 0.106375,-0.05318 0,-0.06541 0.04786,-0.08935 0.106376,-0.05318 0.0585,0.03615 0.106375,0.01506 0.106375,-0.04691 0,-0.06196 0.0359,-0.104919 0.07978,-0.09548 0.04387,0.0094 0.21771,-0.03964 0.386287,-0.10906 0.574759,-0.23671 1.288093,-0.349094 2.193269,-0.345544 1.277606,0.00501 1.420034,0.017479 1.564348,0.136853 0.07057,0.05838 0.174963,0.0773 0.23199,0.04206 0.05702,-0.03524 0.135766,-0.01216 0.174979,0.05128 0.03921,0.06345 0.138257,0.08967 0.220098,0.05826 0.08184,-0.0314 0.148798,-0.0056 0.148798,0.05732 0,0.06293 0.07179,0.08686 0.159562,0.05318 0.08776,-0.03367 0.15956,-0.0097 0.15956,0.05318 0,0.06293 0.07179,0.08686 0.15956,0.05318 0.08776,-0.03367 0.15956,-0.01204 0.15956,0.04808 0,0.06012 0.04786,0.07973 0.106375,0.04356 0.0585,-0.03615 0.106376,-0.01223 0.106376,0.05318 0,0.0654 0.04787,0.08935 0.106376,0.05318 0.0585,-0.03616 0.106376,-0.01223 0.106376,0.0532 0,0.06541 0.04786,0.08935 0.106375,0.05318 0.0585,-0.03616 0.106375,-0.01223 0.106375,0.05318 0,0.0654 0.04285,0.09244 0.09524,0.06008 0.05237,-0.03238 0.125303,0.01952 0.162062,0.115317 0.03676,0.0958 0.09731,0.143693 0.134572,0.106435 0.03726,-0.03725 0.135139,0.02849 0.217522,0.146114 0.08238,0.117617 0.189363,0.189391 0.237735,0.159495 0.04836,-0.02989 0.116557,0.0202 0.15153,0.111334 0.03498,0.09113 0.107073,0.138816 0.160219,0.105966 0.134545,-0.08314 1.131063,1.030375 1.507949,1.685012 0.65929,1.145162 0.748678,1.545857 0.748119,3.353544 -5.32e-4,1.752563 -0.05078,2.016026 -0.585606,3.071471 -0.323537,0.638467 -1.522235,2.073163 -1.660663,1.987611 -0.05184,-0.03203 -0.146214,0.03882 -0.209713,0.15747 -0.06349,0.118651 -0.185571,0.215728 -0.27127,0.215728 -0.0857,0 -0.155818,0.04786 -0.155818,0.106375 0,0.0585 -0.0718,0.106375 -0.15956,0.106375 -0.08776,0 -0.15956,0.05069 -0.15956,0.112657 0,0.06196 -0.04786,0.08306 -0.106375,0.04691 -0.0585,-0.03617 -0.106377,-0.01223 -0.106377,0.05318 0,0.0654 -0.04787,0.08935 -0.106375,0.05318 -0.0585,-0.03616 -0.106375,-0.01223 -0.106375,0.05318 0,0.0654 -0.04786,0.08935 -0.106376,0.05318 -0.0585,-0.03615 -0.106375,-0.01223 -0.106375,0.05318 0,0.0654 -0.04786,0.08935 -0.106375,0.05318 -0.0585,-0.03617 -0.106376,-0.0099 -0.106376,0.05828 0,0.06821 -0.07179,0.09649 -0.15956,0.06279 -0.08776,-0.03367 -0.15956,-0.01636 -0.15956,0.03847 0,0.05483 -0.07179,0.07215 -0.15956,0.03847 -0.08783,-0.03371 -0.159561,-0.0031 -0.159561,0.06791 0,0.07103 -0.07027,0.102179 -0.156153,0.06921 -0.08588,-0.03296 -0.186462,-0.01083 -0.223507,0.04905 -0.03705,0.05993 -0.13278,0.08387 -0.212746,0.0532 -0.07997,-0.03069 -0.174009,-0.0095 -0.20898,0.04709 -0.03497,0.05658 -0.192077,0.09813 -0.349121,0.09232 -0.157043,-0.0057 -0.524874,0.01251 -0.8174,0.0407 -0.292527,0.0282 -0.699405,0.03113 -0.904175,0.0065 l 0,3e-6 z m 2.423187,-2.337115 c 1.287724,-0.333144 2.813732,-1.571355 3.35603,-2.723102 0.519886,-1.104152 0.5473,-2.596893 0.0676,-3.681328 -0.532759,-1.204391 -1.784477,-2.32135 -3.134296,-2.796863 -0.802037,-0.28254 -2.513396,-0.387529 -3.378694,-0.207277 -1.561744,0.32533 -3.174856,1.566243 -3.827544,2.944401 -0.3193254,0.674258 -0.3462753,0.814378 -0.3462753,1.800412 0,1.020983 0.01799,1.105649 0.3984973,1.875554 0.676268,1.368335 2.142341,2.516881 3.72583,2.918874 0.664201,0.168619 2.234705,0.103234 3.13885,-0.130671 z"
       style="opacity:1;fill:#e6e6e6;fill-opacity:1;stroke:none;stroke-width:1;stroke-linecap:butt;stroke-linejoin:round;stroke-miterlimit:4;stroke-dasharray:none;stroke-dashoffset:0" />
    <path
       id="path8692"
       d="m 32.743112,23.086507 c -0.585343,-0.05586 -1.680429,-0.358354 -2.226174,-0.614915 -0.675178,-0.317411 -0.851696,-0.43311 -1.368577,-0.897042 -0.228139,-0.20477 -0.456113,-0.372306 -0.506606,-0.372306 -0.323309,0 -1.773579,-2.347275 -1.971692,-3.191203 -0.166984,-0.711325 -0.135715,-2.664171 0.05381,-3.360588 0.206465,-0.758662 0.648039,-1.684736 0.905017,-1.898009 0.09232,-0.07663 0.167859,-0.176107 0.167859,-0.221079 0,-0.117098 1.301911,-1.40948 1.663754,-1.651576 0.761887,-0.509746 1.664171,-0.91303 2.423153,-1.0830475 0.413433,-0.092604 2.897491,-0.097063 3.252858,-0.00574 1.712064,0.4395515 2.606668,1.0127975 4.051392,2.5960605 0.938281,1.028256 1.603073,3.240149 1.369318,4.555994 -0.05238,0.294912 -0.111129,0.655872 -0.130528,0.802136 -0.06196,0.467104 -0.50988,1.68132 -0.668933,1.813322 -0.08446,0.07009 -0.153567,0.19339 -0.153567,0.273984 0,0.0806 -0.04786,0.146535 -0.106375,0.146535 -0.0585,0 -0.106376,0.05095 -0.106376,0.113236 0,0.06228 -0.143733,0.234184 -0.319406,0.382003 -0.175673,0.147819 -0.296471,0.30587 -0.268441,0.351223 0.062,0.10032 -0.309871,0.454199 -0.391504,0.372568 -0.03186,-0.03186 -0.180447,0.08771 -0.330213,0.265701 -0.149767,0.177986 -0.32326,0.323613 -0.385543,0.323613 -0.06228,0 -0.113235,0.04786 -0.113235,0.106375 0,0.0585 -0.07179,0.106375 -0.15956,0.106375 -0.08776,0 -0.15956,0.04162 -0.15956,0.09246 0,0.198135 -1.546227,0.76099 -2.552962,0.929326 -0.368468,0.0616 -1.582085,0.10149 -1.967908,0.06467 z m 2.872082,-2.140175 c 3.604506,-1.292672 4.659963,-5.339663 2.04697,-7.848789 -1.455898,-1.398023 -3.554343,-1.947011 -5.59951,-1.464924 -2.073965,0.488877 -3.780667,2.216791 -4.036371,4.086537 -0.34778,2.543026 1.399352,4.770989 4.291336,5.472359 0.117014,0.02838 0.763229,0.03633 1.436041,0.01766 0.917683,-0.02547 1.382743,-0.09113 1.861534,-0.262835 z"
       style="opacity:1;fill:#e6e6e6;fill-opacity:1;stroke:none;stroke-width:1;stroke-linecap:butt;stroke-linejoin:round;stroke-miterlimit:4;stroke-dasharray:none;stroke-dashoffset:0" />
    <path
       id="path3483"
       d="m 15.729606,33.080173 c 5.51924,3.302808 11.03848,4.438768 16.55772,0"
       style="fill:none;fill-rule:evenodd;stroke:#000000;stroke-width:2.25787067;stroke-linecap:round;stroke-linejoin:miter;stroke-miterlimit:4;stroke-dasharray:none;stroke-opacity:1" />
  </g>
</svg>
