<?xml version="1.0" encoding="UTF-8" standalone="no"?>
<svg
   xmlns:dc="http://purl.org/dc/elements/1.1/"
   xmlns:cc="http://creativecommons.org/ns#"
   xmlns:rdf="http://www.w3.org/1999/02/22-rdf-syntax-ns#"
   xmlns:svg="http://www.w3.org/2000/svg"
   xmlns="http://www.w3.org/2000/svg"
   id="svg2"
   version="1.1"
   xml:space="preserve"
   style="enable-background:new 0 0 47.5 47.5;"
   viewBox="0 0 47.5 47.5"><metadata
     id="metadata8"><rdf:RDF><cc:Work
         rdf:about=""><dc:format>image/svg+xml</dc:format><dc:type
           rdf:resource="http://purl.org/dc/dcmitype/StillImage" /><dc:title></dc:title></cc:Work></rdf:RDF></metadata><defs
     id="defs6"><clipPath
       clipPathUnits="userSpaceOnUse"
       id="clipPath16"><path
         d="M 0,38 38,38 38,0 0,0 0,38 Z"
         id="path18" /></clipPath><linearGradient
       id="linearGradient5783"><stop
         id="stop5785"
         offset="0"
         style="stop-color:#6e6e6e;stop-opacity:1;" /><stop
         style="stop-color:#373737;stop-opacity:1;"
         offset="0.89822036"
         id="stop5827" /><stop
         id="stop5787"
         offset="1"
         style="stop-color:#393939;stop-opacity:1;" /></linearGradient><linearGradient
       id="linearGradient5921"><stop
         style="stop-color:#000000;stop-opacity:0;"
         offset="0"
         id="stop5923" /><stop
         id="stop5925"
         offset="0.79508531"
         style="stop-color:#393939;stop-opacity:0;" /><stop
         style="stop-color:#393939;stop-opacity:1;"
         offset="1"
         id="stop5927" /></linearGradient></defs><g
     transform="translate(2e-7,-0.3749999)"
     id="g7677"><g
       transform="translate(5.7600634e-4,-0.00470444)"
       id="g8132"><path
         style="fill:#b97a57;fill-opacity:1;stroke:#000000;stroke-width:1;stroke-opacity:1"
         d="m 23.404227,2.9223029 c 0.357551,-0.2241374 0.364361,-0.223922 0.77186,0.033643 0.225991,0.1428423 0.890834,0.5065703 1.478309,0.8074443 2.122335,1.0869504 2.849795,1.4801192 2.921109,1.5775071 0.03994,0.054537 0.106399,0.094435 0.147644,0.089716 0.111604,-0.012757 0.955277,0.3910831 1.031639,0.4934382 0.03631,0.048669 0.570318,0.3470932 1.186759,0.6635248 0.616441,0.3164314 1.628187,0.8413153 2.2483,1.1681775 0.62011,0.3268638 1.769638,0.9291221 2.552933,1.3363951 0.783298,0.4072731 1.491148,0.7952913 1.573623,0.8635169 0.08247,0.068225 0.802924,0.4564142 1.601657,0.8616482 0.798738,0.405235 2.040491,1.047256 2.758514,1.427981 0.718024,0.380723 1.558496,0.82463 1.868911,0.985006 l 0.564412,0.291578 -0.0299,10.636957 -0.0299,10.636958 -0.472835,0.237374 c -0.260219,0.130687 -0.528165,0.294688 -0.594314,0.364471 -0.06616,0.06978 -0.360382,0.229003 -0.654119,0.353257 -0.293737,0.124257 -0.559806,0.255327 -0.592445,0.291577 -0.03264,0.03624 -0.300576,0.168361 -0.594314,0.295315 -0.293737,0.126958 -0.563607,0.27288 -0.59992,0.323351 -0.03631,0.05047 -0.57032,0.350616 -1.186759,0.667263 -0.61644,0.316648 -1.841791,0.956096 -2.723004,1.420504 -0.88121,0.464411 -2.110369,1.094981 -2.73048,1.401814 -0.620111,0.306831 -1.206589,0.626351 -1.3045,0.708382 -0.09791,0.08204 -0.818358,0.480904 -1.601657,0.887815 -0.783298,0.406913 -1.93282,1.008831 -2.552933,1.336395 -0.620111,0.327567 -1.660961,0.868178 -2.313713,1.201821 -0.652748,0.333644 -1.413375,0.751298 -1.689496,0.928935 -0.623092,0.400903 -0.79982,0.400175 -1.396076,-0.01122 C 22.782432,45.022701 22.061988,44.6197 21.441875,44.307557 20.821758,43.995416 19.726572,43.426855 19.008547,43.044059 18.290524,42.661263 17.247802,42.121124 16.692966,41.84411 16.138129,41.567096 15.472018,41.199883 15.210919,41.027319 14.949818,40.854758 14.227504,40.460908 13.607393,40.152589 12.98728,39.844271 11.946429,39.309505 11.29368,38.963851 10.64093,38.618197 9.5457448,38.041843 8.8603574,37.683529 7.4579422,36.950362 7.0475986,36.723929 6.9615433,36.633103 6.9289047,36.59866 6.6628356,36.464744 6.3690984,36.337788 6.0753616,36.21083 5.8074219,36.078773 5.7747846,36.044342 5.742147,36.009899 5.5285431,35.885854 5.300081,35.767718 5.0716189,35.649577 4.5647768,35.383481 4.1731274,35.175218 L 3.4610722,34.795794 3.4311696,24.156967 3.3993981,13.52001 4.2609663,13.078906 C 4.734557,12.837081 5.7090107,12.327788 6.4270347,11.946241 7.1450591,11.564694 8.2402456,10.999192 8.8603574,10.690216 9.480469,10.381242 10.068815,10.061999 10.166726,9.9799644 10.264639,9.8979274 10.985086,9.4978196 11.768384,9.0902803 12.551683,8.6827411 13.726505,8.0685143 14.379253,7.7258489 15.032003,7.3831852 16.020388,6.87301 16.575224,6.593184 17.130061,6.3133576 17.843655,5.9216 18.16193,5.7221908 c 0.318274,-0.1994092 0.607603,-0.345248 0.641036,-0.3233515 0.03344,0.021897 0.09276,-0.00341 0.132693,-0.057942 0.07098,-0.096938 0.699368,-0.4364566 2.980914,-1.6111505 0.620111,-0.3192754 1.289359,-0.6831402 1.487654,-0.8074444 z"
         id="path7768-8" /><path
         style="color:#000000;clip-rule:nonzero;display:inline;overflow:visible;visibility:visible;opacity:1;isolation:auto;mix-blend-mode:normal;color-interpolation:sRGB;color-interpolation-filters:linearRGB;solid-color:#000000;solid-opacity:1;fill:#000000;fill-opacity:1;fill-rule:nonzero;stroke:#000000;stroke-width:2;stroke-linecap:round;stroke-linejoin:round;stroke-miterlimit:4;stroke-dasharray:none;stroke-dashoffset:0;stroke-opacity:1;color-rendering:auto;image-rendering:auto;shape-rendering:auto;text-rendering:auto;enable-background:accumulate"
         d="M 23.733155,1.8868304 21.488592,3.0680916 C 20.254711,3.7178506 18.577918,4.600771 17.761983,5.0287608 16.946046,5.4567505 15.878027,6.0219027 15.388465,6.2847852 14.898903,6.5476663 14.258091,6.8914062 13.964355,7.0492406 12.91625,7.6124194 6.8123702,10.830969 5.5635976,11.47897 4.070084,12.253971 2.9272914,12.884164 2.7191144,13.047131 2.5318157,13.193752 2.4989157,34.856503 2.685474,35.205123 c 0.06337,0.118418 0.3313099,0.300351 0.5943139,0.405591 0.2630039,0.105243 0.4784413,0.234533 0.4784413,0.28597 0,0.05144 0.2660702,0.196692 0.5924449,0.323352 0.3263745,0.126662 0.5943138,0.260647 0.5943138,0.297184 1e-7,0.03654 0.2660704,0.170527 0.592445,0.297185 0.3263745,0.126661 0.5943138,0.264499 0.5943138,0.306529 0,0.04204 0.2524867,0.170715 0.5625423,0.287839 0.310056,0.117124 0.5915253,0.245478 0.6242165,0.2841 0.083409,0.09857 0.6121046,0.382457 2.7884155,1.497138 1.044399,0.534925 2.939667,1.51252 4.212527,2.171875 1.27286,0.659355 2.502017,1.294264 2.73048,1.411158 0.228462,0.116896 0.442065,0.240325 0.474703,0.274756 0.03264,0.03444 0.300576,0.166491 0.594314,0.293446 0.293738,0.126958 0.559806,0.260938 0.592445,0.297184 0.03264,0.03624 0.300577,0.17023 0.594314,0.297185 0.293737,0.126957 0.559807,0.259015 0.592444,0.293445 0.08135,0.08586 0.766154,0.449476 2.343615,1.244811 0.734344,0.370246 1.336272,0.722254 1.336272,0.783146 0,0.209933 0.36586,0.109188 1.218531,-0.334566 0.470388,-0.244803 0.882505,-0.476182 0.915766,-0.515868 0.03326,-0.03968 0.300577,-0.18563 0.594314,-0.32335 0.293737,-0.137722 1.282123,-0.654442 2.195971,-1.147618 0.913849,-0.493176 1.902234,-1.015281 2.195971,-1.160702 0.293738,-0.145423 0.559805,-0.294472 0.592445,-0.330828 0.03264,-0.03635 0.238312,-0.13805 0.456014,-0.226159 0.217702,-0.08812 0.458475,-0.218336 0.534509,-0.289707 0.07603,-0.07138 0.645142,-0.386485 1.265253,-0.700907 0.620111,-0.314421 1.660964,-0.856649 2.313712,-1.20556 1.078203,-0.576325 3.015203,-1.594482 3.917239,-2.057861 0.195825,-0.100594 0.382259,-0.217929 0.414898,-0.261672 0.03264,-0.04374 0.31416,-0.176322 0.624217,-0.293446 0.310056,-0.117124 0.562542,-0.246058 0.562542,-0.287839 0,-0.04178 0.239522,-0.181396 0.53264,-0.310268 0.29312,-0.128874 0.533916,-0.269733 0.534508,-0.312136 6.2e-4,-0.0424 0.26794,-0.172343 0.594314,-0.289709 0.326374,-0.117374 0.594314,-0.25294 0.594314,-0.300922 0,-0.04799 0.118185,-0.125821 0.263517,-0.171957 0.145334,-0.04613 0.439379,-0.194907 0.652249,-0.332696 l 0.386865,-0.252327 0,-10.993952 C 44.938973,15.501258 44.90885,13.13856 44.792049,13.047131 44.604806,12.900553 43.550094,12.3157 42.076521,11.540649 39.819666,10.353617 35.737512,8.1947757 34.427066,7.4959517 33.692572,7.1042655 31.418696,5.9076104 29.37353,4.8362451 27.328362,3.7648795 25.517713,2.7942204 25.351632,2.6793221 25.185549,2.5644241 24.753469,2.3387187 24.391012,2.1784075 L 23.733155,1.8868304 Z M 23.404227,2.922303 c 0.357551,-0.2241375 0.36436,-0.223922 0.771859,0.033643 0.225992,0.1428423 0.890835,0.5065703 1.47831,0.8074443 2.122335,1.0869504 2.849795,1.4801191 2.921109,1.577507 0.03994,0.054537 0.106399,0.094435 0.147644,0.089716 0.111604,-0.012757 0.955277,0.391083 1.031639,0.4934382 0.03631,0.048669 0.570318,0.3470932 1.186758,0.6635247 0.616441,0.3164315 1.628188,0.8413154 2.248301,1.1681775 0.62011,0.3268638 1.769638,0.9291222 2.552933,1.3363952 0.783298,0.4072731 1.491147,0.7952912 1.573623,0.8635169 0.08247,0.068225 0.802924,0.4564142 1.601657,0.8616482 0.798738,0.405235 2.040491,1.047255 2.758514,1.427981 0.718024,0.380723 1.558496,0.82463 1.868911,0.985006 l 0.564412,0.291578 -0.0299,10.636957 -0.0299,10.636958 -0.472835,0.237373 c -0.260219,0.130687 -0.528165,0.294689 -0.594314,0.364472 -0.06616,0.06978 -0.360382,0.229003 -0.654119,0.353257 -0.293737,0.124257 -0.559806,0.255326 -0.592445,0.291576 -0.03264,0.03624 -0.300576,0.168362 -0.594314,0.295316 -0.293737,0.126957 -0.563607,0.27288 -0.59992,0.323351 -0.03631,0.05047 -0.57032,0.350616 -1.186759,0.667263 -0.61644,0.316648 -1.841791,0.956096 -2.723004,1.420504 -0.88121,0.464411 -2.110369,1.094981 -2.73048,1.401813 -0.620111,0.306832 -1.206589,0.626351 -1.3045,0.708383 -0.09791,0.08204 -0.818358,0.480904 -1.601657,0.887814 -0.783298,0.406914 -1.93282,1.008832 -2.552933,1.336396 -0.620111,0.327567 -1.660961,0.868178 -2.313713,1.201821 -0.652748,0.333644 -1.413375,0.751298 -1.689496,0.928935 -0.623092,0.400902 -0.799821,0.400175 -1.396076,-0.01122 C 22.782427,45.022705 22.061982,44.619703 21.44187,44.30756 20.821758,43.995416 19.726572,43.426855 19.008547,43.044059 18.290524,42.661263 17.247802,42.121124 16.692965,41.84411 16.138128,41.567096 15.472018,41.199883 15.210919,41.027319 14.949818,40.854758 14.227504,40.460908 13.607393,40.152589 12.98728,39.844271 11.946429,39.309505 11.29368,38.963851 10.64093,38.618197 9.5457449,38.041843 8.8603574,37.683529 7.4579423,36.950362 7.0475987,36.723929 6.9615434,36.633103 6.9289048,36.59866 6.6628357,36.464744 6.3690985,36.337788 6.0753617,36.21083 5.8074219,36.078773 5.7747847,36.044342 5.7421471,36.009899 5.5285432,35.885854 5.3000811,35.767718 5.071619,35.649577 4.5647769,35.383481 4.1731275,35.175218 L 3.4610723,34.795794 3.4311697,24.156967 3.3993982,13.52001 4.2609664,13.078906 c 0.4735907,-0.241825 1.4480444,-0.751118 2.1660684,-1.132665 0.7180244,-0.381547 1.8132109,-0.947049 2.4333226,-1.256025 0.6201117,-0.308974 1.2084576,-0.628217 1.3063696,-0.7102516 0.09791,-0.082037 0.818359,-0.4821448 1.601657,-0.889684 0.783298,-0.4075392 1.958121,-1.021766 2.610869,-1.3644314 0.65275,-0.3426638 1.641135,-0.8528389 2.195971,-1.1326649 0.554837,-0.2798265 1.268431,-0.671584 1.586706,-0.8709932 0.318274,-0.1994093 0.607603,-0.345248 0.641036,-0.3233515 0.03344,0.021896 0.09276,-0.00341 0.132693,-0.057942 0.07098,-0.096938 0.699368,-0.4364566 2.980914,-1.6111505 0.620111,-0.3192754 1.289359,-0.6831402 1.487654,-0.8074443 z"
         id="path7768" /></g><g
       style="color:#000000;clip-rule:nonzero;display:inline;overflow:visible;visibility:visible;opacity:1;isolation:auto;mix-blend-mode:normal;color-interpolation:sRGB;color-interpolation-filters:linearRGB;solid-color:#000000;solid-opacity:1;fill:#000000;fill-opacity:1;fill-rule:nonzero;stroke:#000000;stroke-width:0.47866955;stroke-linecap:round;stroke-linejoin:round;stroke-miterlimit:4;stroke-dasharray:none;stroke-dashoffset:0;stroke-opacity:1;color-rendering:auto;image-rendering:auto;shape-rendering:auto;text-rendering:auto;enable-background:accumulate"
       transform="matrix(2.0850658,0,0,2.0931899,-21.998694,-30.70458)"
       id="g7909"><path
         style="color:#000000;clip-rule:nonzero;display:inline;overflow:visible;visibility:visible;isolation:auto;mix-blend-mode:normal;color-interpolation:sRGB;color-interpolation-filters:linearRGB;solid-color:#000000;solid-opacity:1;fill:#000000;fill-opacity:1;fill-rule:nonzero;stroke:#000000;stroke-width:0.47866955;stroke-linecap:round;stroke-linejoin:round;stroke-miterlimit:4;stroke-dasharray:none;stroke-dashoffset:0;stroke-opacity:1;color-rendering:auto;image-rendering:auto;shape-rendering:auto;text-rendering:auto;enable-background:accumulate"
         d="m 18.263672,22.683594 c -0.563143,0 -0.646484,0.190097 -0.646484,1.451172 l 0,1.152343 -0.808594,0 c -0.444332,0 -0.904984,0.05199 -1.023438,0.115235 -0.118452,0.06323 -0.312256,0.146643 -0.43164,0.183594 -0.247317,0.07655 -0.30644,0.749521 -0.07813,0.890624 0.0766,0.04733 0.634668,0.07381 1.240234,0.06055 l 1.101563,-0.02344 0,0.847656 c 0,0.575791 0.06287,0.938972 0.197265,1.13086 0.148361,0.211818 0.296676,0.2726 0.589844,0.24414 l 0.390625,-0.03711 0.03516,-1.13086 0.03516,-1.128906 0.757813,-0.08008 c 0.416868,-0.04358 1.072919,-0.07813 1.457031,-0.07813 0.856167,0 1.25,-0.236967 1.25,-0.75 0,-0.485409 -0.29002,-0.548621 -2.064453,-0.447266 l -1.408203,0.08203 0,-0.923828 c 0,-1.205584 -0.13574,-1.558594 -0.59375,-1.558594 z"
         id="path7890"
         transform="translate(-2e-7,0.3749999)" /><path
         style="color:#000000;clip-rule:nonzero;display:inline;overflow:visible;visibility:visible;isolation:auto;mix-blend-mode:normal;color-interpolation:sRGB;color-interpolation-filters:linearRGB;solid-color:#000000;solid-opacity:1;fill:#000000;fill-opacity:1;fill-rule:nonzero;stroke:#000000;stroke-width:0.47866955;stroke-linecap:round;stroke-linejoin:round;stroke-miterlimit:4;stroke-dasharray:none;stroke-dashoffset:0;stroke-opacity:1;color-rendering:auto;image-rendering:auto;shape-rendering:auto;text-rendering:auto;enable-background:accumulate"
         d="m 25.468142,22.091797 c -0.109447,0.109441 -0.148437,1.179688 -0.148437,4.042969 0,3.663005 0.01449,3.912647 0.242187,4.232422 0.235277,0.330415 0.533519,0.40583 0.845704,0.21289 0.211479,-0.130711 0.220625,-7.859476 0.0098,-8.322266 -0.157297,-0.345232 -0.679313,-0.435921 -0.949219,-0.166015 z"
         id="path7888" /></g></g></svg>