<?xml version="1.0" encoding="UTF-8" standalone="no"?>
<svg
   xmlns:dc="http://purl.org/dc/elements/1.1/"
   xmlns:cc="http://creativecommons.org/ns#"
   xmlns:rdf="http://www.w3.org/1999/02/22-rdf-syntax-ns#"
   xmlns:svg="http://www.w3.org/2000/svg"
   xmlns="http://www.w3.org/2000/svg"
   viewBox="0 0 47.5 47.5"
   style="enable-background:new 0 0 47.5 47.5;"
   xml:space="preserve"
   version="1.1"
   id="svg2"><metadata
     id="metadata8"><rdf:RDF><cc:Work
         rdf:about=""><dc:format>image/svg+xml</dc:format><dc:type
           rdf:resource="http://purl.org/dc/dcmitype/StillImage" /><dc:title></dc:title></cc:Work></rdf:RDF></metadata><defs
     id="defs6" /><g
     transform="matrix(1.484375,0,0,1.484375,37.109375,66.796875)"
     id="g4461"><path
       id="rect4252"
       transform="matrix(0.67368421,0,0,0.67368421,-25,-45)"
       d="M 1.484375 20.039062 L 1.484375 21.523438 L 0 21.523438 L 0 23.007812 L 2.96875 23.007812 L 2.96875 21.523438 L 11.875 21.523438 L 11.875 23.007812 L 13.359375 23.007812 L 13.359375 24.492188 L 14.84375 24.492188 L 14.84375 25.976562 L 16.328125 25.976562 L 16.328125 27.460938 L 26.71875 27.460938 L 26.71875 25.976562 L 28.203125 25.976562 L 28.203125 24.492188 L 29.6875 24.492188 L 29.6875 23.007812 L 29.6875 21.523438 L 31.171875 21.523438 L 31.171875 23.007812 L 32.65625 23.007812 L 32.65625 24.492188 L 34.140625 24.492188 L 34.140625 25.976562 L 35.625 25.976562 L 35.625 27.460938 L 43.046875 27.460938 L 43.046875 25.976562 L 44.53125 25.976562 L 44.53125 24.492188 L 46.015625 24.492188 L 46.015625 23.007812 L 47.5 23.007812 L 47.5 21.523438 L 47.5 20.039062 L 1.484375 20.039062 z "
       style="color:#000000;clip-rule:nonzero;display:inline;overflow:visible;visibility:visible;opacity:1;isolation:auto;mix-blend-mode:normal;color-interpolation:sRGB;color-interpolation-filters:linearRGB;solid-color:#000000;solid-opacity:1;fill:#000000;fill-opacity:1;fill-rule:evenodd;stroke:none;stroke-width:1px;stroke-linecap:butt;stroke-linejoin:miter;stroke-miterlimit:4;stroke-dasharray:none;stroke-dashoffset:0;stroke-opacity:1;marker:none;color-rendering:auto;image-rendering:auto;shape-rendering:auto;text-rendering:auto;enable-background:accumulate" /><path
       id="rect4428"
       transform="matrix(0.67368421,0,0,0.67368421,-25,-45)"
       d="M 14.84375 21.523438 L 14.84375 23.007812 L 16.328125 23.007812 L 16.328125 21.523438 L 14.84375 21.523438 z M 16.328125 23.007812 L 16.328125 24.492188 L 17.8125 24.492188 L 17.8125 23.007812 L 16.328125 23.007812 z M 17.8125 23.007812 L 19.296875 23.007812 L 19.296875 21.523438 L 17.8125 21.523438 L 17.8125 23.007812 z M 19.296875 23.007812 L 19.296875 24.492188 L 20.78125 24.492188 L 20.78125 23.007812 L 19.296875 23.007812 z M 20.78125 24.492188 L 20.78125 25.976562 L 22.265625 25.976562 L 22.265625 24.492188 L 20.78125 24.492188 z M 19.296875 24.492188 L 17.8125 24.492188 L 17.8125 25.976562 L 19.296875 25.976562 L 19.296875 24.492188 z "
       style="color:#000000;clip-rule:nonzero;display:inline;overflow:visible;visibility:visible;opacity:1;isolation:auto;mix-blend-mode:normal;color-interpolation:sRGB;color-interpolation-filters:linearRGB;solid-color:#000000;solid-opacity:1;fill:#686868;fill-opacity:1;fill-rule:evenodd;stroke:none;stroke-width:1px;stroke-linecap:butt;stroke-linejoin:miter;stroke-miterlimit:4;stroke-dasharray:none;stroke-dashoffset:0;stroke-opacity:1;marker:none;color-rendering:auto;image-rendering:auto;shape-rendering:auto;text-rendering:auto;enable-background:accumulate" /><path
       id="rect4455"
       transform="matrix(0.67368421,0,0,0.67368421,-25,-45)"
       d="M 34.140625 21.523438 L 34.140625 23.007812 L 35.625 23.007812 L 35.625 21.523438 L 34.140625 21.523438 z M 35.625 23.007812 L 35.625 24.492188 L 37.109375 24.492188 L 37.109375 23.007812 L 35.625 23.007812 z M 37.109375 23.007812 L 38.59375 23.007812 L 38.59375 21.523438 L 37.109375 21.523438 L 37.109375 23.007812 z M 38.59375 23.007812 L 38.59375 24.492188 L 40.078125 24.492188 L 40.078125 23.007812 L 38.59375 23.007812 z "
       style="color:#000000;clip-rule:nonzero;display:inline;overflow:visible;visibility:visible;opacity:1;isolation:auto;mix-blend-mode:normal;color-interpolation:sRGB;color-interpolation-filters:linearRGB;solid-color:#000000;solid-opacity:1;fill:#686868;fill-opacity:1;fill-rule:evenodd;stroke:none;stroke-width:1px;stroke-linecap:butt;stroke-linejoin:miter;stroke-miterlimit:4;stroke-dasharray:none;stroke-dashoffset:0;stroke-opacity:1;marker:none;color-rendering:auto;image-rendering:auto;shape-rendering:auto;text-rendering:auto;enable-background:accumulate" /></g></svg>