<?xml version="1.0" encoding="UTF-8" standalone="no"?>
<svg
   xmlns:dc="http://purl.org/dc/elements/1.1/"
   xmlns:cc="http://creativecommons.org/ns#"
   xmlns:rdf="http://www.w3.org/1999/02/22-rdf-syntax-ns#"
   xmlns:svg="http://www.w3.org/2000/svg"
   xmlns="http://www.w3.org/2000/svg"
   xmlns:xlink="http://www.w3.org/1999/xlink"
   viewBox="0 0 47.5 47.5"
   style="enable-background:new 0 0 47.5 47.5;"
   xml:space="preserve"
   version="1.1"
   id="svg2"><metadata
     id="metadata8"><rdf:RDF><cc:Work
         rdf:about=""><dc:format>image/svg+xml</dc:format><dc:type
           rdf:resource="http://purl.org/dc/dcmitype/StillImage" /><dc:title></dc:title></cc:Work></rdf:RDF></metadata><defs
     id="defs6"><clipPath
       id="clipPath16"
       clipPathUnits="userSpaceOnUse"><path
         id="path18"
         d="M 0,38 38,38 38,0 0,0 0,38 Z" /></clipPath><linearGradient
       id="linearGradient5783"><stop
         style="stop-color:#6e6e6e;stop-opacity:1;"
         offset="0"
         id="stop5785" /><stop
         id="stop5827"
         offset="0.89822036"
         style="stop-color:#373737;stop-opacity:1;" /><stop
         style="stop-color:#393939;stop-opacity:1;"
         offset="1"
         id="stop5787" /></linearGradient><linearGradient
       id="linearGradient5921"><stop
         id="stop5923"
         offset="0"
         style="stop-color:#000000;stop-opacity:0;" /><stop
         style="stop-color:#393939;stop-opacity:0;"
         offset="0.79508531"
         id="stop5925" /><stop
         id="stop5927"
         offset="1"
         style="stop-color:#393939;stop-opacity:1;" /></linearGradient><radialGradient
       xlink:href="#linearGradient5783"
       id="radialGradient5915"
       gradientUnits="userSpaceOnUse"
       gradientTransform="matrix(2.5661594,0,0,2.6379861,-400.93688,-780.97305)"
       cx="256"
       cy="515.82324"
       fx="256"
       fy="515.82324"
       r="225.34375" /><radialGradient
       xlink:href="#linearGradient5921"
       id="radialGradient5919"
       gradientUnits="userSpaceOnUse"
       gradientTransform="matrix(1.2768721,0,0,1.2769607,-428.04432,-220.56537)"
       cx="1546.0001"
       cy="766.47577"
       fx="1546.0001"
       fy="766.47577"
       r="225.34375" /></defs><g
     id="layer1"
     transform="matrix(0.09147304,0,0,0.09147304,0.33290824,-49.097097)"><g
       id="g4016"
       transform="translate(-1290,4.4335939e-6)"><g
         id="g5910"
         transform="matrix(1.1360326,0,0,1.1360326,-210.30649,-108.33339)"><path
           style="color:#000000;display:inline;overflow:visible;visibility:visible;fill:url(#radialGradient5915);fill-opacity:1;fill-rule:nonzero;stroke:none;stroke-width:65;marker:none;enable-background:accumulate"
           d="M 256,0 C 115.0452,0 0,115.0452 0,256 0,396.9548 115.0452,512.03125 256,512.03125 396.9548,512.03125 512,396.9548 512,256 512,115.0452 396.9548,0 256,0 Z m -182.15625,256 364.3125,0 C 438.15625,357.04756 357.0476,438.1875 256,438.1875 154.9524,438.1875 73.843864,357.04756 73.84375,256 Z"
           transform="matrix(0.88025643,0,0,0.88025643,1320.6544,571.01844)"
           id="path3004-90-9" /><path
           id="path3004-90-9-0"
           d="m 1546.0001,571.01843 c -124.0764,0 -225.3438,101.26738 -225.3438,225.34375 0,124.07637 101.2674,225.37502 225.3438,225.37502 124.0763,0 225.3437,-101.29865 225.3437,-225.37502 0,-124.07637 -101.2674,-225.34375 -225.3437,-225.34375 z"
           style="color:#000000;display:inline;overflow:visible;visibility:visible;opacity:0.25;fill:url(#radialGradient5919);fill-opacity:1;fill-rule:nonzero;stroke:none;stroke-width:65;marker:none;enable-background:accumulate" /></g></g></g></svg>