<?xml version="1.0" encoding="UTF-8" standalone="no"?>
<svg
   xmlns:dc="http://purl.org/dc/elements/1.1/"
   xmlns:cc="http://creativecommons.org/ns#"
   xmlns:rdf="http://www.w3.org/1999/02/22-rdf-syntax-ns#"
   xmlns:svg="http://www.w3.org/2000/svg"
   xmlns="http://www.w3.org/2000/svg"
   viewBox="0 0 47.5 47.5"
   style="enable-background:new 0 0 47.5 47.5;"
   xml:space="preserve"
   version="1.1"
   id="svg2"><metadata
     id="metadata8"><rdf:RDF><cc:Work
         rdf:about=""><dc:format>image/svg+xml</dc:format><dc:type
           rdf:resource="http://purl.org/dc/dcmitype/StillImage" /><dc:title></dc:title></cc:Work></rdf:RDF></metadata><defs
     id="defs6" /><g
     transform="matrix(1.0859847,0,0,1.0859847,-2.1109167,-1.7625015)"
     id="g4578"><g
       style="stroke:#ffac33;stroke-width:0.92795593;stroke-opacity:1"
       id="g8771"
       transform="matrix(0.99231357,0,0,0.99231357,-39.509503,0.18038393)"><path
         id="path8751"
         d="m 59.704004,42.078364 0.890119,-1.861158"
         style="fill:none;fill-rule:evenodd;stroke:#ffac33;stroke-width:1.15994489;stroke-linecap:round;stroke-linejoin:miter;stroke-miterlimit:4;stroke-dasharray:none;stroke-opacity:1" /><path
         id="path8753"
         d="m 59.865844,40.136286 -1.092419,1.901618"
         style="fill:none;fill-rule:evenodd;stroke:#ffac33;stroke-width:1.15994489;stroke-linecap:round;stroke-linejoin:miter;stroke-miterlimit:4;stroke-dasharray:none;stroke-opacity:1" /><path
         id="path8755"
         d="m 59.501704,40.621806 -1.699319,0.809199"
         style="fill:none;fill-rule:evenodd;stroke:#ffac33;stroke-width:1.15994489;stroke-linecap:round;stroke-linejoin:miter;stroke-miterlimit:4;stroke-dasharray:none;stroke-opacity:1" /></g><path
       style="fill:#5c913b;fill-opacity:1;fill-rule:evenodd;stroke:none;stroke-width:1px;stroke-linecap:butt;stroke-linejoin:miter;stroke-opacity:1"
       d="m 13.412599,17.33585 c -2.137916,2.845071 -3.6759841,5.2941 -4.0105684,7.707654 -0.1460557,1.053583 0.00922,6.239105 0.7280294,7.922275 0.889496,2.082835 2.294167,3.748708 3.736773,4.952539 3.310013,2.762151 4.655895,3.236414 10.333817,3.406752 5.677923,0.170337 8.620486,-0.177627 10.106703,-0.482624 1.450019,-0.297568 5.394025,-3.435142 7.324519,-6.046985 1.930493,-2.611845 3.092486,-6.063478 3.151246,-7.182572 0.06522,-1.241978 -0.141948,-7.154184 -0.766519,-8.460105 -0.471223,-0.985284 -2.469895,-0.73813 -2.838961,0.170338 -0.321268,0.790811 -2.384727,3.236416 -4.712675,3.463532 -2.327949,0.227117 -7.494859,-2.15761 -10.333819,-1.703377 -2.838962,0.454234 -4.826234,1.930494 -4.826234,1.930494 l 2.044052,-5.11013 z"
       id="path4244" /><path
       style="fill:none;fill-rule:evenodd;stroke:#77b255;stroke-width:1.381235;stroke-linecap:round;stroke-linejoin:miter;stroke-miterlimit:4;stroke-dasharray:none;stroke-opacity:1"
       d="m 16.87613,32.439121 c 3.236416,5.734703 7.494858,5.280468 10.901611,5.16691 3.924762,-0.130826 7.210962,-1.646596 10.844832,-5.734702 3.63387,-4.088103 4.372,-8.460104 4.372,-8.460104"
       id="path4246" /><path
       style="fill:#77b255;fill-opacity:1;fill-rule:evenodd;stroke:none;stroke-width:1px;stroke-linecap:butt;stroke-linejoin:miter;stroke-opacity:1"
       d="m 21.475248,22.786654 c 4.883013,-3.066078 8.062649,-1.646597 9.53891,-1.305922 1.47626,0.340677 4.570726,1.873714 6.728337,0.965248 2.157611,-0.908469 3.946156,-3.889378 4.286832,-4.570728 0.216896,-0.433792 0.24491,-0.782833 0.369063,-0.567791 0.221732,0.384047 -0.05998,3.713331 -2.842159,5.473487 -2.782182,1.760157 -4.567528,2.049758 -8.76919,0.743836 -4.201663,-1.305922 -8.630442,0.965247 -9.027897,0.73813 -0.397455,-0.227116 -0.73813,-0.851689 -0.283896,-1.47626 z"
       id="path4250" /><path
       style="color:#000000;clip-rule:nonzero;display:inline;overflow:visible;visibility:visible;opacity:1;isolation:auto;mix-blend-mode:normal;color-interpolation:sRGB;color-interpolation-filters:linearRGB;solid-color:#000000;solid-opacity:1;fill:#5c913b;fill-opacity:1;fill-rule:evenodd;stroke:none;stroke-width:1px;stroke-linecap:butt;stroke-linejoin:miter;stroke-miterlimit:4;stroke-dasharray:none;stroke-dashoffset:0;stroke-opacity:1;color-rendering:auto;image-rendering:auto;shape-rendering:auto;text-rendering:auto;enable-background:accumulate"
       d="m 13.923612,17.449408 c 0,0 -2.250327,-0.329105 -3.766796,-1.42645 C 9.2989024,15.402157 8.9461091,14.617517 8.6999231,13.304524 8.0185728,9.6706537 11.482104,7.0020306 13.185481,6.4910176 14.888857,5.9800046 20.055767,6.0367837 20.907456,5.2418747 21.759144,4.4469655 24.768443,3.3681603 24.768443,3.3681603 L 24.541326,8.137615 c 0,0 1.533039,-0.1987273 1.533039,0.7381299 0,0.9368572 -0.993636,3.0092991 -1.078806,3.1512461 -0.08517,0.141948 0.170338,0.567793 0.08517,0.76652 -0.08517,0.198728 -0.709741,1.135585 -0.76652,1.334312 -0.05678,0.198727 0.283897,1.391091 0.05678,2.129221 -0.227116,0.73813 -2.384727,4.797843 -2.384727,4.797843 z"
       id="path4252" /><path
       style="color:#000000;clip-rule:nonzero;display:inline;overflow:visible;visibility:visible;opacity:1;isolation:auto;mix-blend-mode:normal;color-interpolation:sRGB;color-interpolation-filters:linearRGB;solid-color:#000000;solid-opacity:1;fill:#77b255;fill-opacity:1;fill-rule:evenodd;stroke:none;stroke-width:1px;stroke-linecap:butt;stroke-linejoin:miter;stroke-miterlimit:4;stroke-dasharray:none;stroke-dashoffset:0;stroke-opacity:1;color-rendering:auto;image-rendering:auto;shape-rendering:auto;text-rendering:auto;enable-background:accumulate"
       d="m 10.914312,7.7969393 c 1.930494,-2.3279478 5.450806,-0.9652462 9.198234,-2.7254021 3.747429,-1.7601559 3.009299,-2.4982864 4.031326,-2.6118448 1.022025,-0.1135583 1.362701,1.2491432 0.170337,2.1576103 -1.192364,0.908468 -3.520311,2.6686239 -4.599117,3.1796366 -1.078805,0.5110137 -3.974545,1.192364 -4.485558,0.7381305 -0.511014,-0.4542346 -4.42878,0.4542335 -4.315222,-0.7381305 z"
       id="path4268" /><path
       style="color:#000000;clip-rule:nonzero;display:inline;overflow:visible;visibility:visible;opacity:1;isolation:auto;mix-blend-mode:normal;color-interpolation:sRGB;color-interpolation-filters:linearRGB;solid-color:#000000;solid-opacity:1;fill:#77b255;fill-opacity:1;fill-rule:evenodd;stroke:none;stroke-width:1px;stroke-linecap:butt;stroke-linejoin:miter;stroke-miterlimit:4;stroke-dasharray:none;stroke-dashoffset:0;stroke-opacity:1;color-rendering:auto;image-rendering:auto;shape-rendering:auto;text-rendering:auto;enable-background:accumulate"
       d="m 22.78117,10.295226 c -1.816935,0.170337 -2.15761,-0.283897 -1.249143,-0.7949097 0.908468,-0.511013 2.498287,-2.6118442 2.89574,-2.9525196 0.397455,-0.3406753 0.794909,0.73813 0.567792,1.3059222 -0.227116,0.5677922 -0.454233,1.0788052 -0.454233,1.0788052 0,0 0.511012,-0.4542338 0.73813,0.056779 0.227117,0.511013 -0.170338,1.4194808 -1.135584,1.7033768 -0.965248,0.283896 -1.760156,0.113558 -1.362702,-0.397454 z"
       id="path4284" /><path
       style="fill:#ffac33;fill-opacity:1;fill-rule:evenodd;stroke:none;stroke-width:1px;stroke-linecap:butt;stroke-linejoin:miter;stroke-opacity:1"
       d="m 9.1764092,10.057032 -0.4416381,0.521936 c 0,0 -1.2044692,0.562086 -2.5494599,1.184394 -1.3449907,0.62231 -3.3323647,1.60596 -3.3524391,1.866929 -0.020074,0.260967 0.3412655,0.782904 0.9635752,1.104096 0.6223085,0.321191 1.0840222,0.341265 1.0840222,0.341265 0,0 0.160596,0.381416 0.5620851,0.682534 0.4014901,0.301118 4.8178774,0.562085 4.9182494,0.401489 0.100372,-0.160595 -0.220819,-1.304841 -0.4215637,-1.445362 -0.200745,-0.140522 -0.6423841,-0.301118 -0.6423841,-0.301118 0,0 0.4215647,-0.642384 0.4215647,-0.98365 0,-0.341266 -0.5420117,-3.372513 -0.5420117,-3.372513 z"
       id="path4291" /><ellipse
       style="color:#000000;clip-rule:nonzero;display:inline;overflow:visible;visibility:visible;opacity:1;isolation:auto;mix-blend-mode:normal;color-interpolation:sRGB;color-interpolation-filters:linearRGB;solid-color:#000000;solid-opacity:1;fill:#664500;fill-opacity:1;fill-rule:evenodd;stroke:none;stroke-width:1px;stroke-linecap:butt;stroke-linejoin:miter;stroke-miterlimit:4;stroke-dasharray:none;stroke-dashoffset:0;stroke-opacity:1;marker:none;color-rendering:auto;image-rendering:auto;shape-rendering:auto;text-rendering:auto;enable-background:accumulate"
       id="path4326"
       cx="7.3367376"
       cy="12.863999"
       rx="0.34033903"
       ry="0.14248006"
       transform="matrix(0.99696739,-0.0778204,0.10218138,0.99476578,0,0)" /><path
       style="color:#000000;clip-rule:nonzero;display:inline;overflow:visible;visibility:visible;opacity:1;isolation:auto;mix-blend-mode:normal;color-interpolation:sRGB;color-interpolation-filters:linearRGB;solid-color:#000000;solid-opacity:1;fill:none;fill-opacity:1;fill-rule:evenodd;stroke:#77b255;stroke-width:0.46041164;stroke-linecap:round;stroke-linejoin:miter;stroke-miterlimit:4;stroke-dasharray:none;stroke-dashoffset:0;stroke-opacity:1;color-rendering:auto;image-rendering:auto;shape-rendering:auto;text-rendering:auto;enable-background:accumulate"
       d="m 19.173504,19.532189 c -0.883278,1.686257 0.120447,1.967299 0.120447,1.967299"
       id="path4339" /><path
       style="color:#000000;clip-rule:nonzero;display:inline;overflow:visible;visibility:visible;opacity:1;isolation:auto;mix-blend-mode:normal;color-interpolation:sRGB;color-interpolation-filters:linearRGB;solid-color:#000000;solid-opacity:1;fill:none;fill-opacity:1;fill-rule:evenodd;stroke:#77b255;stroke-width:0.46041164;stroke-linecap:round;stroke-linejoin:miter;stroke-miterlimit:4;stroke-dasharray:none;stroke-dashoffset:0;stroke-opacity:1;color-rendering:auto;image-rendering:auto;shape-rendering:auto;text-rendering:auto;enable-background:accumulate"
       d="m 17.928886,21.218446 c -0.602236,1.485512 0.481788,1.56581 0.481788,1.56581"
       id="path4341" /><path
       style="color:#000000;clip-rule:nonzero;display:inline;overflow:visible;visibility:visible;opacity:1;isolation:auto;mix-blend-mode:normal;color-interpolation:sRGB;color-interpolation-filters:linearRGB;solid-color:#000000;solid-opacity:1;fill:none;fill-opacity:1;fill-rule:evenodd;stroke:#77b255;stroke-width:0.46041164;stroke-linecap:round;stroke-linejoin:miter;stroke-miterlimit:4;stroke-dasharray:none;stroke-dashoffset:0;stroke-opacity:1;color-rendering:auto;image-rendering:auto;shape-rendering:auto;text-rendering:auto;enable-background:accumulate"
       d="m 15.841139,21.700234 c -0.602234,0.883277 0.281042,1.084022 0.281042,1.084022"
       id="path4343" /><path
       style="color:#000000;clip-rule:nonzero;display:inline;overflow:visible;visibility:visible;opacity:1;isolation:auto;mix-blend-mode:normal;color-interpolation:sRGB;color-interpolation-filters:linearRGB;solid-color:#000000;solid-opacity:1;fill:none;fill-opacity:1;fill-rule:evenodd;stroke:#77b255;stroke-width:0.46041164;stroke-linecap:round;stroke-linejoin:miter;stroke-miterlimit:4;stroke-dasharray:none;stroke-dashoffset:0;stroke-opacity:1;color-rendering:auto;image-rendering:auto;shape-rendering:auto;text-rendering:auto;enable-background:accumulate"
       d="M 12.589072,26.678707 C 13.111009,27.963473 13.87384,26.9196 13.87384,26.9196"
       id="path4345" /><path
       style="color:#000000;clip-rule:nonzero;display:inline;overflow:visible;visibility:visible;opacity:1;isolation:auto;mix-blend-mode:normal;color-interpolation:sRGB;color-interpolation-filters:linearRGB;solid-color:#000000;solid-opacity:1;fill:none;fill-opacity:1;fill-rule:evenodd;stroke:#77b255;stroke-width:0.46041164;stroke-linecap:round;stroke-linejoin:miter;stroke-miterlimit:4;stroke-dasharray:none;stroke-dashoffset:0;stroke-opacity:1;color-rendering:auto;image-rendering:auto;shape-rendering:auto;text-rendering:auto;enable-background:accumulate"
       d="m 11.023262,29.408836 c -0.32697,1.656067 0.868287,1.316799 0.843129,0.682533"
       id="path4347" /><path
       style="color:#000000;clip-rule:nonzero;display:inline;overflow:visible;visibility:visible;opacity:1;isolation:auto;mix-blend-mode:normal;color-interpolation:sRGB;color-interpolation-filters:linearRGB;solid-color:#000000;solid-opacity:1;fill:none;fill-opacity:1;fill-rule:evenodd;stroke:#77b255;stroke-width:0.46041164;stroke-linecap:round;stroke-linejoin:miter;stroke-miterlimit:4;stroke-dasharray:none;stroke-dashoffset:0;stroke-opacity:1;color-rendering:auto;image-rendering:auto;shape-rendering:auto;text-rendering:auto;enable-background:accumulate"
       d="m 13.592797,31.135242 c -0.283896,1.765616 0.841551,1.333929 0.912381,0.479689"
       id="path4349" /><path
       style="color:#000000;font-style:normal;font-variant:normal;font-weight:normal;font-stretch:normal;font-size:medium;line-height:normal;font-family:sans-serif;text-indent:0;text-align:start;text-decoration:none;text-decoration-line:none;text-decoration-style:solid;text-decoration-color:#000000;letter-spacing:normal;word-spacing:normal;text-transform:none;direction:ltr;block-progression:tb;writing-mode:lr-tb;baseline-shift:baseline;text-anchor:start;white-space:normal;clip-rule:nonzero;display:inline;overflow:visible;visibility:visible;opacity:1;isolation:auto;mix-blend-mode:normal;color-interpolation:sRGB;color-interpolation-filters:linearRGB;solid-color:#000000;solid-opacity:1;fill:#664500;fill-opacity:1;fill-rule:evenodd;stroke:none;stroke-width:0.5;stroke-linecap:round;stroke-linejoin:miter;stroke-miterlimit:4;stroke-dasharray:none;stroke-dashoffset:0;stroke-opacity:1;color-rendering:auto;image-rendering:auto;shape-rendering:auto;text-rendering:auto;enable-background:accumulate"
       d="m 10.601596,13.584262 c -0.242292,0.135231 -0.456606,0.271441 -0.6504697,0.49045 -0.1555234,0.04444 -0.9948102,0.297353 -2.0834706,0.490343 -1.0886612,0.192989 -2.7099457,0.458079 -3.7576225,0.248544 -0.3243099,-0.06589 0.5137029,0.278621 0.8380128,0.344518 1.1605176,0.232104 1.8872901,0.09381 3.0068232,-0.104659 1.1195332,-0.198462 1.8360669,-0.466108 1.9615866,-0.50197 0.4238602,-0.114998 0.5916802,-0.433822 0.7757642,-0.718359 0.08863,-0.170094 0.100926,-0.258565 -0.09063,-0.248867 z"
       id="path4365" /><ellipse
       style="color:#000000;clip-rule:nonzero;display:inline;overflow:visible;visibility:visible;opacity:1;isolation:auto;mix-blend-mode:normal;color-interpolation:sRGB;color-interpolation-filters:linearRGB;solid-color:#000000;solid-opacity:1;fill:#292f33;fill-opacity:1;fill-rule:evenodd;stroke:none;stroke-width:0.5;stroke-linecap:round;stroke-linejoin:miter;stroke-miterlimit:4;stroke-dasharray:none;stroke-dashoffset:0;stroke-opacity:1;marker:none;color-rendering:auto;image-rendering:auto;shape-rendering:auto;text-rendering:auto;enable-background:accumulate"
       id="path4383"
       cx="12.428998"
       cy="11.230361"
       rx="0.53280962"
       ry="0.84022444" /><ellipse
       style="color:#000000;clip-rule:nonzero;display:inline;overflow:visible;visibility:visible;opacity:1;isolation:auto;mix-blend-mode:normal;color-interpolation:sRGB;color-interpolation-filters:linearRGB;solid-color:#000000;solid-opacity:1;fill:#f5f8fa;fill-opacity:1;fill-rule:evenodd;stroke:none;stroke-width:0.5;stroke-linecap:round;stroke-linejoin:miter;stroke-miterlimit:4;stroke-dasharray:none;stroke-dashoffset:0;stroke-opacity:1;marker:none;color-rendering:auto;image-rendering:auto;shape-rendering:auto;text-rendering:auto;enable-background:accumulate"
       id="path4383-8"
       cx="12.328627"
       cy="11.04969"
       rx="0.18074521"
       ry="0.25806436" /><path
       style="color:#000000;clip-rule:nonzero;display:inline;overflow:visible;visibility:visible;opacity:1;isolation:auto;mix-blend-mode:normal;color-interpolation:sRGB;color-interpolation-filters:linearRGB;solid-color:#000000;solid-opacity:1;fill:#292f33;fill-opacity:1;fill-rule:evenodd;stroke:none;stroke-width:0.5;stroke-linecap:round;stroke-linejoin:miter;stroke-miterlimit:4;stroke-dasharray:none;stroke-dashoffset:0;stroke-opacity:1;marker:none;color-rendering:auto;image-rendering:auto;shape-rendering:auto;text-rendering:auto;enable-background:accumulate"
       d="m 14.888857,11.146914 c -2.069515,-0.802868 -3.753593,-0.161618 -3.860986,-0.312286 -0.139822,-0.196163 0.113558,-0.511013 1.334311,-0.624572 1.220754,-0.113558 2.725404,0.511014 2.753794,0.681351 0.02839,0.170338 0,0.170338 -0.227119,0.255507 z"
       id="path4425" /><path
       style="color:#000000;clip-rule:nonzero;display:inline;overflow:visible;visibility:visible;opacity:1;isolation:auto;mix-blend-mode:normal;color-interpolation:sRGB;color-interpolation-filters:linearRGB;solid-color:#000000;solid-opacity:1;fill:#292f33;fill-opacity:1;fill-rule:evenodd;stroke:none;stroke-width:0.5;stroke-linecap:round;stroke-linejoin:miter;stroke-miterlimit:4;stroke-dasharray:none;stroke-dashoffset:0;stroke-opacity:1;marker:none;color-rendering:auto;image-rendering:auto;shape-rendering:auto;text-rendering:auto;enable-background:accumulate"
       d="m 13.199676,10.706874 c -0.511012,-0.553598 -1.44787,-0.05678 -1.476259,0.0142 -0.02839,0.07098 -0.01412,0.249706 0.09937,0.184532 0.09276,-0.05326 0.391664,-0.246218 0.73813,-0.198727 0.482245,0.06609 0.449695,0.180558 0.511013,0.198727 0.08517,0.01419 0.141948,-0.127753 0.127753,-0.198732 z"
       id="path8708" /><path
       style="color:#000000;clip-rule:nonzero;display:inline;overflow:visible;visibility:visible;opacity:1;isolation:auto;mix-blend-mode:normal;color-interpolation:sRGB;color-interpolation-filters:linearRGB;solid-color:#000000;solid-opacity:1;fill:#292f33;fill-opacity:1;fill-rule:evenodd;stroke:#292f33;stroke-width:0.09208234;stroke-linecap:round;stroke-linejoin:round;stroke-miterlimit:4;stroke-dasharray:none;stroke-dashoffset:0;stroke-opacity:1;marker:none;color-rendering:auto;image-rendering:auto;shape-rendering:auto;text-rendering:auto;enable-background:accumulate"
       d="M 12.1414,10.394588 C 11.389076,9.5854844 12.1377,8.9234088 12.1377,8.9234088 c 0,0 -0.805406,0.4917379 -0.507315,1.4144002 0.298091,0.922663 0.511012,0.05678 0.511012,0.05678 z"
       id="path8724" /><path
       style="color:#000000;clip-rule:nonzero;display:inline;overflow:visible;visibility:visible;opacity:1;isolation:auto;mix-blend-mode:normal;color-interpolation:sRGB;color-interpolation-filters:linearRGB;solid-color:#000000;solid-opacity:1;fill:#292f33;fill-opacity:1;fill-rule:evenodd;stroke:#292f33;stroke-width:0.09208234;stroke-linecap:round;stroke-linejoin:round;stroke-miterlimit:4;stroke-dasharray:none;stroke-dashoffset:0;stroke-opacity:1;marker:none;color-rendering:auto;image-rendering:auto;shape-rendering:auto;text-rendering:auto;enable-background:accumulate"
       d="m 11.709222,10.352004 c -0.482623,-0.02839 -0.965247,-0.7097404 -0.965247,-0.7097404 0,0 0.482624,1.2065584 0.908468,0.7523244"
       id="path8731" /><path
       style="color:#000000;clip-rule:nonzero;display:inline;overflow:visible;visibility:visible;opacity:1;isolation:auto;mix-blend-mode:normal;color-interpolation:sRGB;color-interpolation-filters:linearRGB;solid-color:#000000;solid-opacity:1;fill:#292f33;fill-opacity:1;fill-rule:evenodd;stroke:#292f33;stroke-width:0.09208234;stroke-linecap:round;stroke-linejoin:round;stroke-miterlimit:4;stroke-dasharray:none;stroke-dashoffset:0;stroke-opacity:1;marker:none;color-rendering:auto;image-rendering:auto;shape-rendering:auto;text-rendering:auto;enable-background:accumulate"
       d="m 11.737611,10.522342 c -1.03622,0.156143 -1.234948,-0.397455 -1.234948,-0.397455 0,0 0.440039,0.993637 1.234948,0.397455 z"
       id="path8738" /><path
       style="fill:none;fill-rule:evenodd;stroke:#ffac33;stroke-width:1.15102911;stroke-linecap:round;stroke-linejoin:miter;stroke-miterlimit:4;stroke-dasharray:none;stroke-opacity:1"
       d="m 27.96613,41.011889 c -1.9673,1.084023 -1.445364,2.890727 -1.445364,2.890727"
       id="path8745" /><path
       style="fill:none;fill-rule:evenodd;stroke:#ffac33;stroke-width:1.15102911;stroke-linecap:round;stroke-linejoin:miter;stroke-miterlimit:4;stroke-dasharray:none;stroke-opacity:1"
       d="m 26.962405,40.811145 -2.770279,2.32864"
       id="path8747" /><path
       style="fill:none;fill-rule:evenodd;stroke:#ffac33;stroke-width:1.15102911;stroke-linecap:round;stroke-linejoin:miter;stroke-miterlimit:4;stroke-dasharray:none;stroke-opacity:1"
       d="m 25.59734,40.6104 -2.007449,1.646108"
       id="path8749" /><path
       style="fill:#5c913b;fill-opacity:1;fill-rule:evenodd;stroke:none;stroke-width:1px;stroke-linecap:butt;stroke-linejoin:miter;stroke-opacity:1"
       d="m 23.283492,39.727122 c 1.324917,1.324917 2.730131,0.80298 3.452812,1.124171 0.722681,0.321192 2.971024,-0.321191 2.971024,-0.321191 l -1.927151,-1.284767 z"
       id="path8781" /><path
       style="color:#000000;clip-rule:nonzero;display:inline;overflow:visible;visibility:visible;opacity:1;isolation:auto;mix-blend-mode:normal;color-interpolation:sRGB;color-interpolation-filters:linearRGB;solid-color:#000000;solid-opacity:1;fill:none;fill-opacity:1;fill-rule:evenodd;stroke:#77b255;stroke-width:0.46041164;stroke-linecap:round;stroke-linejoin:miter;stroke-miterlimit:4;stroke-dasharray:none;stroke-dashoffset:0;stroke-opacity:1;color-rendering:auto;image-rendering:auto;shape-rendering:auto;text-rendering:auto;enable-background:accumulate"
       d="m 20.029311,27.437997 c 6.263979,-4.403391 14.109459,1.5815 14.109459,1.5815"
       id="path4190" /><path
       style="color:#000000;clip-rule:nonzero;display:inline;overflow:visible;visibility:visible;opacity:1;isolation:auto;mix-blend-mode:normal;color-interpolation:sRGB;color-interpolation-filters:linearRGB;solid-color:#000000;solid-opacity:1;fill:none;fill-opacity:1;fill-rule:evenodd;stroke:#77b255;stroke-width:0.46041164;stroke-linecap:round;stroke-linejoin:miter;stroke-miterlimit:4;stroke-dasharray:none;stroke-dashoffset:0;stroke-opacity:1;color-rendering:auto;image-rendering:auto;shape-rendering:auto;text-rendering:auto;enable-background:accumulate"
       d="M 29.42528,26.569723 C 41.426072,26.042557 43.875846,19.28242 43.875846,19.28242"
       id="path4192" /><path
       style="color:#000000;clip-rule:nonzero;display:inline;overflow:visible;visibility:visible;opacity:1;isolation:auto;mix-blend-mode:normal;color-interpolation:sRGB;color-interpolation-filters:linearRGB;solid-color:#000000;solid-opacity:1;fill:none;fill-opacity:1;fill-rule:evenodd;stroke:#77b255;stroke-width:0.46041164;stroke-linecap:round;stroke-linejoin:miter;stroke-miterlimit:4;stroke-dasharray:none;stroke-dashoffset:0;stroke-opacity:1;color-rendering:auto;image-rendering:auto;shape-rendering:auto;text-rendering:auto;enable-background:accumulate"
       d="m 19.595173,29.174546 c 1.953618,-0.589186 1.860589,1.45746 1.860589,1.45746 0,0 0.930294,-0.341108 1.61251,0.558176 0.682214,0.899285 0.279088,1.73655 0.279088,1.73655 0,0 0.527166,-0.434138 0.930294,0.124039 0.403127,0.558176 0.124038,1.705539 0.124038,1.705539 0,0 1.178373,-0.465147 1.457461,0.279088 0.279088,0.744235 0.155049,1.395441 0.155049,1.395441"
       id="path4194" /><path
       style="color:#000000;clip-rule:nonzero;display:inline;overflow:visible;visibility:visible;opacity:1;isolation:auto;mix-blend-mode:normal;color-interpolation:sRGB;color-interpolation-filters:linearRGB;solid-color:#000000;solid-opacity:1;fill:none;fill-opacity:1;fill-rule:evenodd;stroke:#77b255;stroke-width:0.46041164;stroke-linecap:round;stroke-linejoin:miter;stroke-miterlimit:4;stroke-dasharray:none;stroke-dashoffset:0;stroke-opacity:1;color-rendering:auto;image-rendering:auto;shape-rendering:auto;text-rendering:auto;enable-background:accumulate"
       d="m 21.207683,29.236566 c 1.643519,-1.61251 3.473098,-0.465147 3.473098,-0.465147"
       id="path4220" /><path
       style="color:#000000;clip-rule:nonzero;display:inline;overflow:visible;visibility:visible;opacity:1;isolation:auto;mix-blend-mode:normal;color-interpolation:sRGB;color-interpolation-filters:linearRGB;solid-color:#000000;solid-opacity:1;fill:none;fill-opacity:1;fill-rule:evenodd;stroke:#77b255;stroke-width:0.46041164;stroke-linecap:round;stroke-linejoin:miter;stroke-miterlimit:4;stroke-dasharray:none;stroke-dashoffset:0;stroke-opacity:1;color-rendering:auto;image-rendering:auto;shape-rendering:auto;text-rendering:auto;enable-background:accumulate"
       d="m 23.099281,29.887772 c 1.240392,-1.209383 2.387755,-0.744236 2.387755,-0.744236"
       id="path4222" /><path
       style="color:#000000;clip-rule:nonzero;display:inline;overflow:visible;visibility:visible;opacity:1;isolation:auto;mix-blend-mode:normal;color-interpolation:sRGB;color-interpolation-filters:linearRGB;solid-color:#000000;solid-opacity:1;fill:none;fill-opacity:1;fill-rule:evenodd;stroke:#77b255;stroke-width:0.46041164;stroke-linecap:round;stroke-linejoin:miter;stroke-miterlimit:4;stroke-dasharray:none;stroke-dashoffset:0;stroke-opacity:1;color-rendering:auto;image-rendering:auto;shape-rendering:auto;text-rendering:auto;enable-background:accumulate"
       d="m 25.269967,30.663016 c 0.930294,-1.302411 2.697852,-0.651206 2.697852,-0.651206"
       id="path4224" /><path
       style="color:#000000;clip-rule:nonzero;display:inline;overflow:visible;visibility:visible;opacity:1;isolation:auto;mix-blend-mode:normal;color-interpolation:sRGB;color-interpolation-filters:linearRGB;solid-color:#000000;solid-opacity:1;fill:none;fill-opacity:1;fill-rule:evenodd;stroke:#77b255;stroke-width:0.46041164;stroke-linecap:round;stroke-linejoin:miter;stroke-miterlimit:4;stroke-dasharray:none;stroke-dashoffset:0;stroke-opacity:1;color-rendering:auto;image-rendering:auto;shape-rendering:auto;text-rendering:auto;enable-background:accumulate"
       d="m 25.176938,27.748095 c 2.015637,-1.61251 4.434401,-0.589186 4.434401,-0.589186"
       id="path4226" /><path
       style="color:#000000;clip-rule:nonzero;display:inline;overflow:visible;visibility:visible;opacity:1;isolation:auto;mix-blend-mode:normal;color-interpolation:sRGB;color-interpolation-filters:linearRGB;solid-color:#000000;solid-opacity:1;fill:none;fill-opacity:1;fill-rule:evenodd;stroke:#77b255;stroke-width:0.46041164;stroke-linecap:round;stroke-linejoin:miter;stroke-miterlimit:4;stroke-dasharray:none;stroke-dashoffset:0;stroke-opacity:1;color-rendering:auto;image-rendering:auto;shape-rendering:auto;text-rendering:auto;enable-background:accumulate"
       d="m 27.161565,28.864448 c 1.054332,-1.705539 4.372381,-0.806255 4.372381,-0.806255"
       id="path4228" /><path
       style="color:#000000;clip-rule:nonzero;display:inline;overflow:visible;visibility:visible;opacity:1;isolation:auto;mix-blend-mode:normal;color-interpolation:sRGB;color-interpolation-filters:linearRGB;solid-color:#000000;solid-opacity:1;fill:none;fill-opacity:1;fill-rule:evenodd;stroke:#77b255;stroke-width:0.46041164;stroke-linecap:round;stroke-linejoin:miter;stroke-miterlimit:4;stroke-dasharray:none;stroke-dashoffset:0;stroke-opacity:1;color-rendering:auto;image-rendering:auto;shape-rendering:auto;text-rendering:auto;enable-background:accumulate"
       d="m 28.650035,30.321908 c 0.899284,-1.45746 5.519745,-0.837264 5.519745,-0.837264"
       id="path4230" /><path
       style="color:#000000;clip-rule:nonzero;display:inline;overflow:visible;visibility:visible;opacity:1;isolation:auto;mix-blend-mode:normal;color-interpolation:sRGB;color-interpolation-filters:linearRGB;solid-color:#000000;solid-opacity:1;fill:none;fill-opacity:1;fill-rule:evenodd;stroke:#77b255;stroke-width:0.46041164;stroke-linecap:round;stroke-linejoin:miter;stroke-miterlimit:4;stroke-dasharray:none;stroke-dashoffset:0;stroke-opacity:1;color-rendering:auto;image-rendering:auto;shape-rendering:auto;text-rendering:auto;enable-background:accumulate"
       d="m 29.952447,31.810379 c 0.930294,-1.271401 5.085607,-1.116353 4.55844,-0.465147"
       id="path4232" /><path
       style="color:#000000;clip-rule:nonzero;display:inline;overflow:visible;visibility:visible;opacity:1;isolation:auto;mix-blend-mode:normal;color-interpolation:sRGB;color-interpolation-filters:linearRGB;solid-color:#000000;solid-opacity:1;fill:none;fill-opacity:1;fill-rule:evenodd;stroke:#77b255;stroke-width:0.46041164;stroke-linecap:round;stroke-linejoin:miter;stroke-miterlimit:4;stroke-dasharray:none;stroke-dashoffset:0;stroke-opacity:1;color-rendering:auto;image-rendering:auto;shape-rendering:auto;text-rendering:auto;enable-background:accumulate"
       d="m 30.324564,33.732986 c 2.449774,-0.279088 3.814206,-1.767558 3.814206,-1.767558"
       id="path4234" /><path
       style="color:#000000;clip-rule:nonzero;display:inline;overflow:visible;visibility:visible;opacity:1;isolation:auto;mix-blend-mode:normal;color-interpolation:sRGB;color-interpolation-filters:linearRGB;solid-color:#000000;solid-opacity:1;fill:none;fill-opacity:1;fill-rule:evenodd;stroke:#77b255;stroke-width:0.46041164;stroke-linecap:round;stroke-linejoin:miter;stroke-miterlimit:4;stroke-dasharray:none;stroke-dashoffset:0;stroke-opacity:1;color-rendering:auto;image-rendering:auto;shape-rendering:auto;text-rendering:auto;enable-background:accumulate"
       d="m 32.40222,27.748095 c 2.976941,1.178373 7.84548,-3.03896 7.84548,-3.03896"
       id="path4236" /><path
       style="color:#000000;clip-rule:nonzero;display:inline;overflow:visible;visibility:visible;opacity:1;isolation:auto;mix-blend-mode:normal;color-interpolation:sRGB;color-interpolation-filters:linearRGB;solid-color:#000000;solid-opacity:1;fill:none;fill-opacity:1;fill-rule:evenodd;stroke:#77b255;stroke-width:0.46041164;stroke-linecap:round;stroke-linejoin:miter;stroke-miterlimit:4;stroke-dasharray:none;stroke-dashoffset:0;stroke-opacity:1;color-rendering:auto;image-rendering:auto;shape-rendering:auto;text-rendering:auto;enable-background:accumulate"
       d="m 34.479877,29.484644 c 2.418764,-0.248078 6.791146,-3.535117 6.760137,-5.302676"
       id="path4238" /><path
       style="color:#000000;clip-rule:nonzero;display:inline;overflow:visible;visibility:visible;opacity:1;isolation:auto;mix-blend-mode:normal;color-interpolation:sRGB;color-interpolation-filters:linearRGB;solid-color:#000000;solid-opacity:1;fill:none;fill-opacity:1;fill-rule:evenodd;stroke:#77b255;stroke-width:0.46041164;stroke-linecap:round;stroke-linejoin:miter;stroke-miterlimit:4;stroke-dasharray:none;stroke-dashoffset:0;stroke-opacity:1;color-rendering:auto;image-rendering:auto;shape-rendering:auto;text-rendering:auto;enable-background:accumulate"
       d="m 27.153544,31.593449 c 2.06116,0.06577 2.324287,1.512979 2.324287,1.512979"
       id="path4254" /><path
       style="color:#000000;clip-rule:nonzero;display:inline;overflow:visible;visibility:visible;opacity:1;isolation:auto;mix-blend-mode:normal;color-interpolation:sRGB;color-interpolation-filters:linearRGB;solid-color:#000000;solid-opacity:1;fill:none;fill-opacity:1;fill-rule:evenodd;stroke:#77b255;stroke-width:0.46041164;stroke-linecap:round;stroke-linejoin:miter;stroke-miterlimit:4;stroke-dasharray:none;stroke-dashoffset:0;stroke-opacity:1;color-rendering:auto;image-rendering:auto;shape-rendering:auto;text-rendering:auto;enable-background:accumulate"
       d="m 28.227979,32.777519 c 1.271779,-0.02193 1.622615,1.776106 1.622615,1.776106"
       id="path4256" /><path
       style="color:#000000;clip-rule:nonzero;display:inline;overflow:visible;visibility:visible;opacity:1;isolation:auto;mix-blend-mode:normal;color-interpolation:sRGB;color-interpolation-filters:linearRGB;solid-color:#000000;solid-opacity:1;fill:none;fill-opacity:1;fill-rule:evenodd;stroke:#77b255;stroke-width:0.46041164;stroke-linecap:round;stroke-linejoin:miter;stroke-miterlimit:4;stroke-dasharray:none;stroke-dashoffset:0;stroke-opacity:1;color-rendering:auto;image-rendering:auto;shape-rendering:auto;text-rendering:auto;enable-background:accumulate"
       d="m 25.158165,28.655198 c 1.556834,-0.438545 2.631268,0.701672 2.631268,0.701672"
       id="path4386" /></g></svg>