<?xml version="1.0" encoding="UTF-8" standalone="no"?>
<svg
   xmlns:dc="http://purl.org/dc/elements/1.1/"
   xmlns:cc="http://creativecommons.org/ns#"
   xmlns:rdf="http://www.w3.org/1999/02/22-rdf-syntax-ns#"
   xmlns:svg="http://www.w3.org/2000/svg"
   xmlns="http://www.w3.org/2000/svg"
   xmlns:sodipodi="http://sodipodi.sourceforge.net/DTD/sodipodi-0.dtd"
   xmlns:inkscape="http://www.inkscape.org/namespaces/inkscape"
   width="2048"
   height="2048"
   viewBox="0 0 2048 2048"
   id="svg3077"
   version="1.1"
   inkscape:version="0.48.5 r10040"
   sodipodi:docname="cog.svg">
  <metadata
     id="metadata3085">
    <rdf:RDF>
      <cc:Work
         rdf:about="">
        <dc:format>image/svg+xml</dc:format>
        <dc:type
           rdf:resource="http://purl.org/dc/dcmitype/StillImage" />
      </cc:Work>
    </rdf:RDF>
  </metadata>
  <defs
     id="defs3083" />
  <sodipodi:namedview
     pagecolor="#ffffff"
     bordercolor="#666666"
     borderopacity="1"
     objecttolerance="10"
     gridtolerance="10"
     guidetolerance="10"
     inkscape:pageopacity="0"
     inkscape:pageshadow="2"
     inkscape:window-width="749"
     inkscape:window-height="1414"
     id="namedview3081"
     showgrid="true"
     inkscape:snap-page="true"
     inkscape:snap-grids="false"
     inkscape:snap-to-guides="false"
     inkscape:zoom="0.11523438"
     inkscape:cx="1369.6038"
     inkscape:cy="1088.0703"
     inkscape:window-x="1058"
     inkscape:window-y="24"
     inkscape:window-maximized="0"
     inkscape:current-layer="svg3077">
    <inkscape:grid
       type="xygrid"
       id="grid3105" />
  </sodipodi:namedview>
  <path
     d="m 1365.3333,1024 q 0,-141.33333 -100,-241.33333 -100,-100 -241.3333,-100 -141.33333,0 -241.33333,100 -100,100 -100,241.33333 0,141.3333 100,241.3333 100,100 241.33333,100 141.3333,0 241.3333,-100 100,-100 100,-241.3333 z M 2048,878.66667 v 296.00003 q 0,16 -10.6667,30.6666 -10.6666,14.6667 -26.6666,17.3334 L 1764,1260 q -25.3333,72 -52,121.3333 46.6667,66.6667 142.6667,184 13.3333,16 13.3333,33.3334 0,17.3333 -12,30.6666 -36,49.3334 -132,144 Q 1628,1868 1598.6667,1868 q -16,0 -34.6667,-12 l -184,-144 q -58.6667,30.6667 -121.3333,50.6667 Q 1237.3333,1944 1220,2010.6667 1210.6667,2048 1172,2048 H 876 q -18.66667,0 -32.66667,-11.3333 Q 829.33333,2025.3333 828,2008 l -37.33333,-245.3333 q -65.33334,-21.3334 -120,-49.3334 l -188,142.6667 q -13.33334,12 -33.33334,12 -18.66666,0 -33.33333,-14.6667 -168,-152 -220,-224 -9.33333,-13.3333 -9.33333,-30.6666 0,-16 10.66666,-30.6667 20,-28 68,-88.6667 48,-60.6666 72,-94 -36,-66.6666 -54.66666,-132 l -244.000003,-36 q -17.333334,-2.6666 -28,-16.6666 Q 0,1186.6667 0,1169.3333 V 873.33333 q 0,-16 10.666667,-30.66666 Q 21.333333,828 36,825.33333 L 284,788 q 18.66667,-61.33333 52,-122.66667 -53.33333,-76 -142.66667,-184 -13.33333,-16 -13.33333,-32 0,-13.33333 12,-30.66666 34.66667,-48 131.33333,-143.33334 Q 420,180 449.33333,180 466.66667,180 484,193.33333 L 668,336 Q 726.66667,305.33333 789.33333,285.33333 810.66667,104 828,37.333333 837.33333,0 876,0 h 296 q 18.6667,0 32.6667,11.333333 Q 1218.6667,22.666667 1220,40 l 37.3333,245.33333 q 65.3334,21.33334 120,49.33334 L 1566.6667,192 q 12,-12 32,-12 Q 1616,180 1632,193.33333 1804,352 1852,420 q 9.3333,10.66667 9.3333,29.33333 0,16 -10.6666,30.66667 -20,28 -68,88.66667 -48,60.66666 -72,94 34.6666,66.66666 54.6666,130.66666 l 244,37.33334 q 17.3334,2.66666 28,16.66666 10.6667,14 10.6667,31.33334 z"
     id="path3079"
     inkscape:connector-curvature="0" />
</svg>
