<?xml version="1.0" encoding="UTF-8" standalone="no"?>
<!-- Created with Inkscape (http://www.inkscape.org/) -->

<svg
   xmlns:dc="http://purl.org/dc/elements/1.1/"
   xmlns:cc="http://creativecommons.org/ns#"
   xmlns:rdf="http://www.w3.org/1999/02/22-rdf-syntax-ns#"
   xmlns:svg="http://www.w3.org/2000/svg"
   xmlns="http://www.w3.org/2000/svg"
   version="1.1"
   width="20"
   height="20"
   id="svg7254">
  <defs
     id="defs7256" />
  <metadata
     id="metadata7259">
    <rdf:RDF>
      <cc:Work
         rdf:about="">
        <dc:format>image/svg+xml</dc:format>
        <dc:type
           rdf:resource="http://purl.org/dc/dcmitype/StillImage" />
        <dc:title></dc:title>
      </cc:Work>
    </rdf:RDF>
  </metadata>
  <path
     d="M 9.9999998,0.05 C 7.3818399,0.05 4.8238892,1.1212511 2.9728127,2.9728126 1.1217362,4.8243739 0.04931318,7.3818392 0.05000033,10 0.04931318,12.618161 1.1217362,15.175626 2.9728127,17.027188 4.8238892,18.878749 7.3818399,19.95 9.9999998,19.95 12.618161,19.95 15.176111,18.878749 17.027186,17.027188 18.878262,15.175626 19.950687,12.618161 19.95,10 19.950687,7.3818392 18.878262,4.8243739 17.027186,2.9728126 15.176111,1.1212511 12.618161,0.05 9.9999998,0.05 z m -3.6068747,5.0682813 2.1143751,0 c 0.4132219,0 0.7462497,0.333028 0.7462497,0.74625 l 0,8.0843757 c 0,0.413221 -0.3330278,0.74625 -0.7462497,0.74625 l -2.1143751,0 c -0.413222,0 -0.74625,-0.333029 -0.74625,-0.74625 l 0,-8.0843757 c 0,-0.413222 0.333028,-0.74625 0.74625,-0.74625 z m 5.0993749,0 2.114375,0 c 0.413222,0 0.74625,0.333028 0.74625,0.74625 l 0,8.0843757 c 0,0.413221 -0.333028,0.74625 -0.74625,0.74625 l -2.114375,0 c -0.413223,0 -0.74625,-0.333029 -0.74625,-0.74625 l 0,-8.0843757 c 0,-0.413222 0.333027,-0.74625 0.74625,-0.74625 z"
     id="path3797-2-9-4-9-7-1-6-0-1-4-4"
     style="color:#000000;fill:#a76d2f;fill-opacity:1;fill-rule:nonzero;stroke:none;stroke-width:2;marker:none;visibility:visible;display:inline;overflow:visible;enable-background:accumulate" />
</svg>
