<?xml version="1.0" encoding="UTF-8" standalone="no"?>
<!-- Created with Inkscape (http://www.inkscape.org/) -->

<svg
   xmlns:dc="http://purl.org/dc/elements/1.1/"
   xmlns:cc="http://creativecommons.org/ns#"
   xmlns:rdf="http://www.w3.org/1999/02/22-rdf-syntax-ns#"
   xmlns:svg="http://www.w3.org/2000/svg"
   xmlns="http://www.w3.org/2000/svg"
   version="1.1"
   width="20"
   height="20"
   id="svg7254">
  <defs
     id="defs7256" />
  <metadata
     id="metadata7259">
    <rdf:RDF>
      <cc:Work
         rdf:about="">
        <dc:format>image/svg+xml</dc:format>
        <dc:type
           rdf:resource="http://purl.org/dc/dcmitype/StillImage" />
        <dc:title></dc:title>
      </cc:Work>
    </rdf:RDF>
  </metadata>
  <path
     d="M 9.9999997,2.1e-5 C 7.3686832,2.1e-5 4.7978785,1.0766553 2.9375,2.937521 1.0771215,4.7983867 -6.9055479e-4,7.3687036 4.423725e-8,10.000021 -6.9055479e-4,12.631338 1.0771215,15.201655 2.9375,17.062521 c 1.8603785,1.860866 4.4311832,2.9375 7.0624997,2.9375 2.6313173,0 5.2021223,-1.076634 7.0625003,-2.9375 1.860378,-1.860866 2.938191,-4.431183 2.9375,-7.0625 6.91e-4,-2.6313174 -1.077122,-5.2016343 -2.9375,-7.0625 C 15.202122,1.0766553 12.631317,2.1e-5 9.9999997,2.1e-5 z M 6.375,5.093771 l 2.125,0 c 0.4152985,0 0.75,0.3347015 0.75,0.75 l 0,8.125 c 0,0.415298 -0.3347015,0.75 -0.75,0.75 l -2.125,0 c -0.4152985,0 -0.75,-0.334702 -0.75,-0.75 l 0,-8.125 c 0,-0.4152985 0.3347015,-0.75 0.75,-0.75 z m 5.125,0 2.125,0 c 0.415299,0 0.75,0.3347015 0.75,0.75 l 0,8.125 c 0,0.415298 -0.334701,0.75 -0.75,0.75 l -2.125,0 c -0.415299,0 -0.75,-0.334702 -0.75,-0.75 l 0,-8.125 c 0,-0.4152985 0.334701,-0.75 0.75,-0.75 z"
     id="path3797-2-9-4-9-7-1-6-0-1-4-4"
     style="color:#000000;fill:#a76d2f;fill-opacity:1;fill-rule:nonzero;stroke:none;stroke-width:2;marker:none;visibility:visible;display:inline;overflow:visible;enable-background:accumulate" />
</svg>
