<?xml version="1.0" encoding="UTF-8" standalone="no"?>
<!-- Created with Inkscape (http://www.inkscape.org/) -->

<svg
   xmlns:dc="http://purl.org/dc/elements/1.1/"
   xmlns:cc="http://creativecommons.org/ns#"
   xmlns:rdf="http://www.w3.org/1999/02/22-rdf-syntax-ns#"
   xmlns:svg="http://www.w3.org/2000/svg"
   xmlns="http://www.w3.org/2000/svg"
   version="1.1"
   width="20"
   height="20"
   id="svg7254">
  <defs
     id="defs7256" />
  <metadata
     id="metadata7259">
    <rdf:RDF>
      <cc:Work
         rdf:about="">
        <dc:format>image/svg+xml</dc:format>
        <dc:type
           rdf:resource="http://purl.org/dc/dcmitype/StillImage" />
        <dc:title></dc:title>
      </cc:Work>
    </rdf:RDF>
  </metadata>
  <g
     transform="matrix(0.99721264,0,0,0.99721382,0.02688055,-1029.457)"
     id="layer1">
    <g
       transform="matrix(0.73883633,0,0,0.73883633,-1007.9091,880.74138)"
       id="g6407">
      <g
         transform="matrix(1.0397467,0,0,1.0397467,1000.792,-1014.0332)"
         id="g4816-58-2-4-7">
        <g
           transform="translate(0.2272689,65.609451)"
           id="g4640-3-3-8-3-9">
          <path
             d="m 362.29246,1107.0585 c -3.41769,0 -6.75679,1.3984 -9.17314,3.8154 -2.41635,2.4169 -3.81628,5.7554 -3.81538,9.1731 -9e-4,3.4177 1.39903,6.7562 3.81538,9.1731 2.41635,2.417 5.75545,3.8154 9.17314,3.8154 3.41768,0 6.75678,-1.3984 9.17314,-3.8154 2.41635,-2.4169 3.81627,-5.7554 3.81537,-9.1731 9e-4,-3.4177 -1.39902,-6.7562 -3.81537,-9.1731 -2.41636,-2.417 -5.75546,-3.8154 -9.17314,-3.8154 z m -4.70833,6.6159 2.76005,0 c 0.53941,0 0.97414,0.4348 0.97414,0.9742 l 0,10.5533 c 0,0.5393 -0.43473,0.9741 -0.97414,0.9741 l -2.76005,0 c -0.53942,0 -0.97414,-0.4348 -0.97414,-0.9741 l 0,-10.5533 c 0,-0.5394 0.43472,-0.9742 0.97414,-0.9742 z m 6.6566,0 2.76006,0 c 0.53942,0 0.97414,0.4348 0.97414,0.9742 l 0,10.5533 c 0,0.5393 -0.43472,0.9741 -0.97414,0.9741 l -2.76006,0 c -0.5394,0 -0.97413,-0.4348 -0.97413,-0.9741 l 0,-10.5533 c 0,-0.5394 0.43473,-0.9742 0.97413,-0.9742 z"
             id="path3797-2-9-4-9-7-1-6-0-1-4"
             style="color:#000000;fill:#930000;fill-opacity:1;stroke:none;stroke-width:2;marker:none;visibility:visible;display:inline;overflow:visible;enable-background:accumulate" />
          <g
             transform="matrix(0.88854739,0,0,1,39.914527,0)"
             id="g4636-8-12-8-6-6"
             style="fill:#d7d7d7;fill-opacity:1" />
        </g>
        <g
           id="g4812-1-2-6-24" />
      </g>
      <g
         transform="matrix(0.93152463,0,0,1,805.41944,-340)"
         id="g5571-6-6-1" />
    </g>
  </g>
</svg>
