<?xml version="1.0" encoding="UTF-8" standalone="no"?>
<svg
   xmlns:dc="http://purl.org/dc/elements/1.1/"
   xmlns:cc="http://creativecommons.org/ns#"
   xmlns:rdf="http://www.w3.org/1999/02/22-rdf-syntax-ns#"
   xmlns:svg="http://www.w3.org/2000/svg"
   xmlns="http://www.w3.org/2000/svg"
   id="svg7254"
   height="20"
   width="20"
   version="1.1">
  <defs
     id="defs7256" />
  <metadata
     id="metadata7259">
    <rdf:RDF>
      <cc:Work
         rdf:about="">
        <dc:format>image/svg+xml</dc:format>
        <dc:type
           rdf:resource="http://purl.org/dc/dcmitype/StillImage" />
        <dc:title></dc:title>
      </cc:Work>
    </rdf:RDF>
  </metadata>
  <g
     id="layer1"
     transform="translate(0,-1032.3622)">
    <g
       style="stroke:#707070;stroke-width:1.30809045;stroke-opacity:1"
       id="g3933-3-0-3-3-4-7-7-6-0-9-7"
       transform="matrix(0.74972771,0,0,0.74972771,-151.21862,702.55507)">
      <path
         id="path5189"
         d="m 215.0372,439.94703 c -5.2843,-0.0703 -10.36166,3.3769 -12.30986,8.27803 -1.50599,3.62418 -1.27148,7.91535 0.62022,11.35393 0.27126,-0.80508 0.54253,-1.61017 0.81379,-2.41525 0.83833,0.20228 1.67666,0.40455 2.51499,0.60683 -2.17074,-3.84766 -1.16072,-9.12242 2.30524,-11.87195 3.36316,-2.87279 8.74033,-2.87074 12.09997,0.007 0.88488,-0.0752 1.76976,-0.15049 2.65464,-0.22574 -0.0809,-0.89873 -0.16182,-1.79745 -0.24273,-2.69618 -2.35388,-1.95515 -5.39615,-3.04786 -8.45626,-3.03677 z m 11.68768,6.95539 c -0.26267,0.78177 -0.52534,1.56355 -0.78801,2.34532 -0.84692,-0.17897 -1.69384,-0.35793 -2.54076,-0.5369 2.17009,3.84776 1.16135,9.12182 -2.30408,11.87196 -3.36281,2.8713 -8.74345,2.87483 -12.10114,-0.007 -0.85494,0.13036 -1.70989,0.26072 -2.56483,0.39108 0.051,0.84426 0.10195,1.68853 0.15292,2.53279 3.99528,3.38101 10.04367,4.00572 14.64315,1.50199 4.55512,-2.34687 7.47662,-7.49292 7.08167,-12.61259 -0.12032,-1.91479 -0.66129,-3.80136 -1.57892,-5.48654 z"
         style="color:#000000;font-style:normal;font-variant:normal;font-weight:normal;font-stretch:normal;font-size:medium;line-height:normal;font-family:sans-serif;text-indent:0;text-align:start;text-decoration:none;text-decoration-line:none;text-decoration-style:solid;text-decoration-color:#000000;letter-spacing:normal;word-spacing:normal;text-transform:none;direction:ltr;block-progression:tb;writing-mode:lr-tb;baseline-shift:baseline;text-anchor:start;white-space:normal;clip-rule:nonzero;display:inline;overflow:visible;visibility:visible;opacity:1;isolation:auto;mix-blend-mode:normal;color-interpolation:sRGB;color-interpolation-filters:linearRGB;solid-color:#000000;solid-opacity:1;fill:#000000;fill-opacity:1;fill-rule:nonzero;stroke:none;stroke-width:3.80138016;stroke-linecap:butt;stroke-linejoin:round;stroke-miterlimit:4;stroke-dasharray:none;stroke-dashoffset:0;stroke-opacity:1;marker:none;color-rendering:auto;image-rendering:auto;shape-rendering:auto;text-rendering:auto;enable-background:accumulate" />
    </g>
  </g>
</svg>
